<?xml version="1.0" encoding="UTF-8"?>
<svg id="Layer_2" xmlns="http://www.w3.org/2000/svg" version="1.1" viewBox="0 0 736.6 126.6">
  <!-- Generator: Adobe Illustrator 30.3.0, SVG Export Plug-In . SVG Version: 2.1.3 Build 182)  -->
  <defs>
    <style>
      .st0 {
        fill: #f5f0ff;
      }
    </style>
  </defs>
  <g id="Layer_1-2">
    <g>
      <g>
        <path class="st0" d="M109.1,34.9c9.6,0,17.5-7.8,17.5-17.5S118.8,0,109.1,0s-17.5,7.8-17.5,17.5,7.8,17.5,17.5,17.5Z"/>
        <path class="st0" d="M109.7,91.7h0c-15.8-.5-28.4-13.2-29-29h0c-.3-9.2-7.7-16.5-16.9-16.8h0c-15.8-.5-28.4-13.2-29-29h0C34.6,7.5,26.9,0,17.5,0S0,7.8,0,17.5s7.5,17.1,16.9,17.4h0c15.8.5,28.4,13.2,29,29h0c.3,9.2,7.7,16.5,16.9,16.8h0c15.8.5,28.4,13.2,29,29h0c.3,9.4,8,16.9,17.4,16.9,9.6,0,17.5-7.8,17.5-17.5s-7.5-17.1-16.9-17.4h0Z"/>
        <path class="st0" d="M62.7,34.9h0c15.8.5,28.4,13.2,29,29h0c.3,9.4,8,16.9,17.4,16.9s17.5-7.8,17.5-17.5-7.5-17.1-16.9-17.4h0c-15.8-.5-28.4-13.2-29-29h0c-.3-9.4-8-16.9-17.4-16.9s-17.5,7.8-17.5,17.5,7.5,17.1,16.9,17.4Z"/>
        <path class="st0" d="M63.9,91.7h0c-15.8-.5-28.4-13.2-29-29h0c-.3-9.4-8-16.9-17.4-16.9-9.7,0-17.5,7.8-17.5,17.5s7.5,17.1,16.9,17.4h0c15.8.5,28.4,13.2,29,29h0c.3,9.4,8,16.9,17.4,16.9s17.5-7.8,17.5-17.5-7.5-17.1-16.9-17.4h0Z"/>
        <path class="st0" d="M17.5,91.7c-9.6,0-17.5,7.8-17.5,17.5s7.8,17.5,17.5,17.5,17.5-7.8,17.5-17.5-7.8-17.5-17.5-17.5Z"/>
      </g>
      <g>
        <path class="st0" d="M373.8,66.1c-1.3-.8-2.9-1.6-4.6-2.3s-4.5-1.6-8.2-2.7c-5.4-1.6-8.9-3-10.5-4.2-1.6-1.3-2.3-2.8-2.3-4.7s.8-3.8,2.4-5c1.6-1.2,3.8-1.8,6.7-1.8,4.1,0,7.7,1.1,10.7,3.3,3,2.2,5.3,5.4,7,9.5h2.6c0-.6,0-1.3,0-2.2,0-.8,0-2.2.2-4.1,0-2.8.1-4.8.2-6,0-1.2,0-2.1,0-2.7s0-.4-.2-.6c-.1-.2-.3-.3-.6-.3-2.9-.9-5.6-1.5-8.2-1.9s-5.2-.6-8-.6c-6.5,0-12,1.9-16.4,5.6-4.4,3.8-6.6,8.5-6.6,14.4s.5,4.3,1.5,6.1c1,1.7,2.4,3.3,4.3,4.6,1.2.7,2.6,1.4,4.2,2.1,1.6.7,4.1,1.5,7.6,2.6,5.8,1.8,9.5,3.4,11.2,4.8,1.7,1.4,2.6,3.3,2.6,5.5s-.8,4.1-2.4,5.5c-1.6,1.3-3.8,2-6.6,2-4.3,0-8-1.3-11.1-3.8-3.1-2.5-5.4-6.2-7.1-11h-2.7c0,2.4,0,4.6,0,6.6s-.1,4.2-.3,6.5c0,.7-.1,1.2-.1,1.5v.6c0,.5,0,.9.2,1.1.1.2.3.4.6.6,3.5,1.4,6.4,2.3,8.7,2.6,2.3.3,5.2.5,8.5.5,6.8,0,12.2-1.9,16.4-5.7,4.2-3.8,6.2-8.7,6.2-14.8s-.5-4.8-1.5-6.7-2.5-3.6-4.6-5.1h0Z"/>
        <path class="st0" d="M428.9,83.7c-3,1.9-6.7,2.8-10.9,2.8s-10.3-1.9-13.8-5.8c-3.5-3.9-5.2-9-5.2-15.4v-2h5.1c2.3,0,6.2,0,11.8.1,4.4,0,7.4.1,9,.1h3.5c3.3,0,5.6-.7,7.1-2,1.5-1.3,2.2-3.5,2.2-6.5,0-4.6-1.7-8.3-5.2-11-3.5-2.8-8.3-4.1-14.4-4.1-8.9,0-16.6,3.3-23.2,9.8-6.6,6.5-9.9,14.2-9.9,23s2.4,13.8,7.2,18.5c4.8,4.7,11.3,7.1,19.5,7.1s13.1-2,18-6.1c4.9-4,8.3-9.7,10.1-16.9l-2.1-1c-2.8,4.3-5.8,7.4-8.8,9.2h0ZM404,49c2.4-2.6,5.4-4,9.1-4s5.1.8,6.7,2.4c1.6,1.6,2.3,3.8,2.3,6.6s0,1.4-.3,2-.5,1.1-.8,1.5c-.3.4-.7.7-1.3,1-.6.3-1.3.5-2,.6-1.7.2-3.8.4-6.2.5-2.5.1-6.5.2-12,.3.7-4.6,2.2-8.2,4.6-10.8h0Z"/>
        <path class="st0" d="M482.3,39.7c-1.2-.3-2.6-.5-4.2-.5-2.4,0-4.4.3-6.1.9-1.7.6-3.2,1.5-4.6,2.8-1.4,1.5-2.5,3.2-3.4,5.3s-1.4,4.3-1.6,6.8h0c-.3-2.9-1.1-5.5-2.6-7.9s-3.3-4.7-5.7-6.8c-.1-.2-.3-.2-.3-.3,0,0-.2,0-.3.2-.5.4-2.5,1.9-6,4.4s-5.7,3.9-6.4,4.3c-.1,0-.2.2-.2.3s0,.2.2.4c2.8,2.2,4.8,4,6,5.3,1.1,1.3,1.7,2.5,1.7,3.5v27.8c0,2.7-.5,4.4-1.4,5.2-.9.8-3,1.2-6.2,1.2v4.7h2.7c1.1,0,2.9,0,5.2-.1,1.6,0,2.7-.1,3.3-.1h3.1c1,0,3.1,0,6.2.1,4.9,0,8.3.1,10.3.1h4v-4.7h-13.2v-31.6c0-1.5,0-2.7.3-3.6.2-.9.5-1.7,1.1-2.4.5-.5,1-.9,1.7-1.2.7-.3,1.6-.4,2.6-.4h1.1c.5,0,1.3,0,2.5.1h3c1.9,0,3.5-.3,4.6-.8s2-1.5,2.7-2.7c.7-1.1,1.2-2.4,1.7-3.7.4-1.4.7-2.7.8-4v-1.1c-.4-.6-1.1-1.1-2.3-1.4h0Z"/>
        <path class="st0" d="M543.6,41.1h-9.8c-2.4,0-4.2-.1-5.4-.1h-3.2v4.5c3.3,0,5.5.3,6.7,1,1.2.7,1.8,2.1,1.8,4.1s-.2,2-.5,3.2-.8,2.8-1.5,4.5l-9.9,24.4-11.1-28.5c-.5-1.2-.8-2.2-1-3-.2-.8-.3-1.4-.3-2,0-1.4.7-2.4,2.1-3,1.4-.6,3.5-.8,6.4-.8v-4.5h-3.7c-1.6,0-4.1,0-7.6.1h-11.9c-.9,0-2.1,0-3.8-.1h-4.9v4.5c2.7,0,4.6.7,5.8,2.1,1.2,1.4,2.7,4.2,4.5,8.6l16.8,41.2h7.3l17.5-38.5c2.6-5.6,4.6-9.3,6-11,1.4-1.7,3.2-2.5,5.3-2.4v-4.5h-2.1c-.8,0-2,0-3.7.1h0Z"/>
        <path class="st0" d="M563.3,32.9c2.8,0,5.1-.9,6.9-2.6,1.8-1.7,2.7-4,2.7-6.7s-.9-5.1-2.6-6.9c-1.7-1.8-4-2.7-6.8-2.7s-5.1.9-7,2.7c-1.8,1.8-2.7,4.1-2.7,6.9s.9,5.1,2.6,6.8c1.7,1.7,4.1,2.6,7,2.6h0Z"/>
        <path class="st0" d="M572.1,91.8c-.8-.6-1.2-2.2-1.2-4.8v-45.9l-5.2-1.6c-2.3,1.9-4.9,3.6-7.9,5.3-3,1.7-5.6,2.9-7.9,3.6v3.8c3.1-.2,5.1.5,5.8,1.8.8,1.3,1.2,4.5,1.2,9.5v23.2c0,2.7-.5,4.3-1.3,5-.9.7-2.9,1-6,.9v4.7h2.6c1.1,0,2.8,0,5.2-.1,1.6,0,2.6-.1,3.2-.1h2.7c.8,0,2.3,0,4.5.1,3.5,0,6,.1,7.4.1h3.2v-4.7c-3.3.2-5.4,0-6.2-.7h0Z"/>
        <path class="st0" d="M623.8,83.8c-2.8,1.7-6.2,2.6-10.1,2.6-5.7,0-10.3-2-13.8-5.9-3.5-3.9-5.2-9.2-5.2-15.9s1.2-10.5,3.6-14c2.4-3.6,5.5-5.3,9.2-5.3s3.2.4,4.3,1.3c1.1.9,2.2,2.8,3.3,5.7,1.1,3,2.3,5,3.6,6,1.3,1,2.9,1.5,4.9,1.5s4.3-.8,6.1-2.6c1.7-1.7,2.6-3.6,2.6-5.8,0-3.3-1.8-6-5.3-8.2-3.5-2.2-8.1-3.3-13.8-3.3-8.9,0-16.6,3.2-23,9.7-6.4,6.5-9.6,14.1-9.6,22.8s2.4,14,7.1,18.8,11.1,7.2,19,7.2,12.9-2,17.7-6c4.8-4,8.1-9.6,10-16.9l-2.1-1c-2.9,4.4-5.8,7.6-8.6,9.3h0Z"/>
        <path class="st0" d="M680.7,83.7c-3,1.9-6.7,2.8-10.9,2.8s-10.3-1.9-13.8-5.8c-3.5-3.9-5.2-9-5.2-15.4v-2h5.1c2.3,0,6.2,0,11.8.1,4.4,0,7.4.1,9,.1h3.5c3.3,0,5.6-.7,7.1-2,1.5-1.3,2.2-3.5,2.2-6.5,0-4.6-1.7-8.3-5.2-11s-8.3-4.1-14.4-4.1c-8.9,0-16.6,3.3-23.2,9.8s-9.8,14.2-9.8,23,2.4,13.8,7.2,18.5c4.8,4.7,11.3,7.1,19.5,7.1s13.1-2,18-6.1c4.9-4,8.3-9.7,10.1-16.9l-2.1-1c-2.8,4.3-5.8,7.4-8.8,9.2h0ZM655.8,49c2.4-2.6,5.4-4,9.1-4s5.1.8,6.7,2.4,2.3,3.8,2.3,6.6,0,1.4-.3,2-.5,1.1-.8,1.5c-.3.4-.7.7-1.3,1-.6.3-1.3.5-2,.6-1.7.2-3.8.4-6.2.5s-6.5.2-12,.3c.7-4.6,2.2-8.2,4.6-10.8h0Z"/>
        <path class="st0" d="M735.1,71.2c-1-1.9-2.5-3.6-4.6-5.1-1.3-.8-2.9-1.6-4.6-2.3s-4.5-1.6-8.2-2.7c-5.4-1.6-8.9-3-10.5-4.2-1.6-1.3-2.3-2.8-2.3-4.7s.8-3.8,2.4-5c1.6-1.2,3.8-1.8,6.7-1.8,4.2,0,7.7,1.1,10.7,3.3,3,2.2,5.3,5.4,7,9.5h2.6c0-.6,0-1.3,0-2.2,0-.8,0-2.2.2-4.1,0-2.8.1-4.8.2-6,0-1.2,0-2.1,0-2.7s0-.4-.2-.6-.3-.3-.6-.3c-2.9-.9-5.6-1.5-8.2-1.9s-5.2-.6-8-.6c-6.5,0-12,1.9-16.4,5.6-4.4,3.8-6.6,8.5-6.6,14.4s.5,4.3,1.5,6.1c1,1.7,2.4,3.3,4.3,4.6,1.2.7,2.6,1.4,4.2,2.1,1.6.7,4.2,1.5,7.6,2.6,5.8,1.8,9.5,3.4,11.2,4.8,1.7,1.4,2.6,3.3,2.6,5.5s-.8,4.1-2.4,5.5c-1.6,1.3-3.8,2-6.6,2-4.3,0-8-1.3-11.1-3.8-3.1-2.5-5.4-6.2-7.1-11h-2.7c0,2.4,0,4.6,0,6.6,0,2-.1,4.2-.3,6.5,0,.7-.1,1.2-.1,1.5v.6c0,.5,0,.9.2,1.1.1.2.3.4.6.6,3.5,1.4,6.4,2.3,8.7,2.6s5.2.5,8.5.5c6.8,0,12.2-1.9,16.4-5.7,4.2-3.8,6.2-8.7,6.2-14.8s-.5-4.8-1.5-6.7h0Z"/>
      </g>
      <g>
        <path class="st0" d="M169.6,72.4c0-17.6,12.8-34,34.1-34s27.6,9.2,27.6,26.2-12.8,34.1-33.9,34.1-27.7-9.2-27.7-26.3h0ZM211.3,63.7c0-8.2-3.3-12.2-8.6-12.2-9.4,0-13.1,12.9-13.1,21.9s3.3,12.1,8.5,12.1c9.6,0,13.2-13.4,13.2-21.8h0Z"/>
        <path class="st0" d="M278.4,41l-2.8,11.9c-.1.7-.6.9-1.1.9h-12.7l-5.5,24.3c-1.1,5,1,6.2,4.1,6.2s4.9-.6,6.7-1c.8-.2,1.2.2,1,1l-2.5,10.7c-.1.4-.5.9-1,1-4,1.4-8.2,2.4-12.4,2.4-11,0-19.5-5.5-16.2-19.4l5.9-25.3h-6.4c-.7,0-1-.4-.9-1.1l2.8-11.9c.1-.7.6-.9,1.1-.9h6.6l3-13.5c.1-.7.6-.9,1.1-.9h18.1c.7,0,1,.5.9,1.1l-3.2,13.2h12.4c.7,0,1,.4.9,1.1h0Z"/>
        <path class="st0" d="M273.8,72.5c0-17.7,12.5-34.1,34-34.1s25.3,8.3,25.6,21.7c0,.7-.5,1-1,1h-17c-.6,0-1-.3-1-1-.3-5.8-3.7-8.6-8-8.6-8.7,0-12.5,12.6-12.5,21.7s3.1,12.2,8.1,12.2,8.8-3.9,10.4-9.2c.1-.6.6-.9,1.1-.9h17c.7,0,1,.3.9.9-3.1,13.1-13.8,22.4-30,22.4s-27.6-9.1-27.6-26.2h0Z"/>
      </g>
    </g>
  </g>
</svg>