<?xml version="1.0" encoding="UTF-8"?>
<svg id="Layer_2" data-name="Layer 2" xmlns="http://www.w3.org/2000/svg" xmlns:xlink="http://www.w3.org/1999/xlink" viewBox="0 0 736.61 126.59">
  <defs>
    <style>
      .cls-1 {
        fill: url(#linear-gradient-8);
      }

      .cls-2 {
        fill: url(#linear-gradient-7);
      }

      .cls-3 {
        fill: url(#linear-gradient-5);
      }

      .cls-4 {
        fill: url(#linear-gradient-6);
      }

      .cls-5 {
        fill: url(#linear-gradient-9);
      }

      .cls-6 {
        fill: url(#linear-gradient-4);
      }

      .cls-7 {
        fill: url(#linear-gradient-3);
      }

      .cls-8 {
        fill: url(#linear-gradient-2);
      }

      .cls-9 {
        fill: url(#linear-gradient);
      }

      .cls-10 {
        fill: #28266b;
      }

      .cls-11 {
        fill: url(#linear-gradient-10);
      }

      .cls-12 {
        fill: url(#linear-gradient-11);
      }

      .cls-13 {
        fill: url(#linear-gradient-12);
      }

      .cls-14 {
        fill: url(#linear-gradient-13);
      }

      .cls-15 {
        fill: url(#linear-gradient-14);
      }
    </style>
    <linearGradient id="linear-gradient" x1="47.78" y1="-43.88" x2="164.67" y2="73" gradientUnits="userSpaceOnUse">
      <stop offset="0" stop-color="#20cfea"/>
      <stop offset=".14" stop-color="#27bde6"/>
      <stop offset=".41" stop-color="#3a8ede"/>
      <stop offset=".78" stop-color="#5945d1"/>
      <stop offset="1" stop-color="#6d18c9"/>
    </linearGradient>
    <linearGradient id="linear-gradient-2" x1="1.95" y1="1.95" x2="118.83" y2="118.84" xlink:href="#linear-gradient"/>
    <linearGradient id="linear-gradient-3" x1="24.87" y1="-20.97" x2="141.75" y2="95.92" xlink:href="#linear-gradient"/>
    <linearGradient id="linear-gradient-4" x1="-20.97" y1="24.86" x2="95.92" y2="141.75" xlink:href="#linear-gradient"/>
    <linearGradient id="linear-gradient-5" x1="-43.88" y1="47.78" x2="73" y2="164.67" xlink:href="#linear-gradient"/>
    <linearGradient id="linear-gradient-6" x1="334.52" y1="69.12" x2="727.8" y2="69.12" xlink:href="#linear-gradient"/>
    <linearGradient id="linear-gradient-7" x1="334.52" y1="69.12" x2="727.8" y2="69.12" xlink:href="#linear-gradient"/>
    <linearGradient id="linear-gradient-8" x1="334.52" y1="68.23" x2="727.8" y2="68.23" xlink:href="#linear-gradient"/>
    <linearGradient id="linear-gradient-9" x1="334.52" y1="69.18" x2="727.8" y2="69.18" xlink:href="#linear-gradient"/>
    <linearGradient id="linear-gradient-10" x1="334.52" y1="23.42" x2="727.8" y2="23.42" xlink:href="#linear-gradient"/>
    <linearGradient id="linear-gradient-11" x1="334.52" y1="68.4" x2="727.8" y2="68.4" xlink:href="#linear-gradient"/>
    <linearGradient id="linear-gradient-12" x1="334.52" y1="69.12" x2="727.8" y2="69.12" xlink:href="#linear-gradient"/>
    <linearGradient id="linear-gradient-13" x1="334.52" y1="69.12" x2="727.8" y2="69.12" xlink:href="#linear-gradient"/>
    <linearGradient id="linear-gradient-14" x1="334.52" y1="69.12" x2="727.8" y2="69.12" xlink:href="#linear-gradient"/>
  </defs>
  <g id="Layer_1-2" data-name="Layer 1">
    <g>
      <g>
        <path class="cls-9" d="M109.13,34.92c9.64,0,17.46-7.82,17.46-17.46C126.59,7.82,118.77,0,109.13,0c-9.64,0-17.46,7.82-17.46,17.46,0,9.64,7.82,17.46,17.46,17.46Z"/>
        <path class="cls-8" d="M109.69,91.7l.02-.02c-15.78-.53-28.44-13.19-28.97-28.97l-.02.02c-.3-9.19-7.68-16.57-16.87-16.87l.02-.02c-15.77-.53-28.44-13.19-28.97-28.97l-.02.02C34.59,7.52,26.91,0,17.46,0,7.82,0,0,7.82,0,17.46c0,9.45,7.52,17.13,16.89,17.43l-.02.02c15.77.53,28.44,13.19,28.97,28.97l.02-.02c.3,9.19,7.68,16.57,16.87,16.87l-.02.02c15.77.53,28.44,13.19,28.97,28.97l.02-.02c.3,9.38,7.98,16.9,17.43,16.89,9.64,0,17.46-7.82,17.46-17.46,0-9.45-7.51-17.13-16.89-17.43Z"/>
        <path class="cls-7" d="M62.73,34.89l-.02.02c15.77.53,28.44,13.19,28.97,28.97l.02-.02c.3,9.38,7.98,16.89,17.43,16.89,9.64,0,17.46-7.82,17.46-17.46,0-9.45-7.51-17.13-16.89-17.43l.02-.02c-15.78-.53-28.44-13.19-28.97-28.96l-.02.02C80.43,7.52,72.75,0,63.29,0s-17.46,7.82-17.46,17.46c0,9.45,7.52,17.13,16.9,17.43Z"/>
        <path class="cls-6" d="M63.86,91.69l.02-.02c-15.77-.53-28.44-13.19-28.96-28.97l-.02.02c-.3-9.38-7.98-16.89-17.43-16.89C7.82,45.83,0,53.65,0,63.29c0,9.45,7.52,17.13,16.89,17.43l-.02.02c15.77.53,28.44,13.19,28.97,28.96l.02-.02c.3,9.38,7.98,16.89,17.43,16.89,9.64,0,17.46-7.82,17.46-17.46,0-9.45-7.51-17.13-16.89-17.43Z"/>
        <path class="cls-3" d="M17.46,91.67C7.82,91.66,0,99.48,0,109.13c0,9.64,7.82,17.46,17.46,17.46s17.46-7.82,17.46-17.46c0-9.64-7.82-17.46-17.46-17.46Z"/>
      </g>
      <g>
        <path class="cls-4" d="M373.79,66.06c-1.34-.82-2.88-1.6-4.62-2.34-1.74-.74-4.47-1.63-8.18-2.67-5.42-1.56-8.91-2.97-10.46-4.23-1.56-1.26-2.34-2.82-2.34-4.67,0-2.15.8-3.82,2.39-5.01,1.59-1.19,3.84-1.78,6.74-1.78,4.15,0,7.74,1.1,10.74,3.28,3.01,2.19,5.32,5.36,6.96,9.52h2.56c0-.59.02-1.32.05-2.17.04-.85.09-2.21.17-4.06.07-2.82.13-4.81.17-5.96.04-1.15.06-2.06.06-2.73,0-.22-.06-.41-.17-.56-.11-.15-.32-.26-.61-.33-2.89-.89-5.62-1.52-8.18-1.89-2.56-.37-5.21-.56-7.96-.56-6.53,0-11.99,1.88-16.37,5.62-4.38,3.75-6.57,8.55-6.57,14.42,0,2.3.48,4.32,1.45,6.07.96,1.74,2.41,3.29,4.34,4.62,1.19.74,2.6,1.45,4.23,2.11,1.63.67,4.15,1.52,7.57,2.56,5.79,1.78,9.53,3.4,11.24,4.84,1.71,1.45,2.56,3.28,2.56,5.51s-.8,4.12-2.39,5.46c-1.6,1.34-3.8,2-6.62,2-4.31,0-8-1.26-11.08-3.79-3.08-2.52-5.44-6.2-7.07-11.02h-2.67c0,2.38-.02,4.58-.06,6.62-.04,2.04-.13,4.21-.28,6.51-.07.74-.11,1.24-.11,1.5v.61c0,.52.06.89.17,1.11.11.22.31.41.61.56,3.49,1.41,6.4,2.28,8.74,2.62,2.34.33,5.18.5,8.52.5,6.75,0,12.21-1.91,16.36-5.73,4.16-3.82,6.24-8.74,6.24-14.75,0-2.52-.5-4.75-1.5-6.68-1-1.93-2.54-3.63-4.62-5.12Z"/>
        <path class="cls-2" d="M428.9,83.65c-3.04,1.86-6.68,2.78-10.91,2.78-5.71,0-10.32-1.93-13.8-5.79-3.49-3.86-5.23-8.98-5.23-15.36v-2h5.07c2.26,0,6.18.04,11.75.11,4.38.08,7.38.11,9.02.11h3.45c3.27,0,5.64-.67,7.12-2,1.48-1.34,2.23-3.49,2.23-6.46,0-4.6-1.74-8.27-5.23-11.02-3.49-2.75-8.28-4.12-14.36-4.12-8.91,0-16.64,3.27-23.21,9.8-6.57,6.53-9.85,14.21-9.85,23.04,0,7.64,2.41,13.82,7.24,18.54,4.82,4.71,11.32,7.07,19.48,7.07,7.12,0,13.14-2.02,18.04-6.07,4.9-4.04,8.27-9.67,10.13-16.87l-2.12-1c-2.82,4.31-5.75,7.39-8.8,9.24ZM404.02,48.97c2.41-2.63,5.44-3.95,9.07-3.95,2.89,0,5.12.8,6.68,2.39,1.56,1.6,2.34,3.8,2.34,6.62,0,.74-.09,1.39-.28,1.95-.19.56-.46,1.06-.84,1.5-.3.37-.74.69-1.34.95-.59.26-1.26.46-2,.61-1.71.22-3.79.39-6.24.5-2.45.11-6.46.2-12.02.28.67-4.6,2.21-8.22,4.62-10.85Z"/>
        <path class="cls-1" d="M482.34,39.73c-1.19-.33-2.6-.5-4.23-.5-2.38,0-4.42.3-6.12.89-1.71.6-3.23,1.52-4.56,2.78-1.41,1.49-2.54,3.25-3.4,5.29-.86,2.04-1.39,4.32-1.61,6.85v-.11c-.3-2.75-1.15-5.34-2.56-7.79-1.41-2.45-3.3-4.71-5.68-6.79-.15-.15-.26-.24-.33-.28-.07-.04-.19.02-.33.17-.45.44-2.45,1.91-6.01,4.4-3.56,2.49-5.68,3.92-6.35,4.29-.15.07-.22.17-.22.28s.07.24.22.39c2.82,2.23,4.8,4.01,5.96,5.34,1.15,1.34,1.73,2.49,1.73,3.45v27.83c0,2.67-.46,4.4-1.39,5.18-.93.78-2.99,1.17-6.18,1.17v4.67h2.67c1.11,0,2.86-.04,5.23-.11,1.63-.07,2.73-.11,3.29-.11h3.12c1,0,3.06.04,6.18.11,4.9.07,8.33.11,10.3.11h3.95v-4.67h-13.25v-31.62c0-1.48.09-2.69.28-3.62.18-.93.54-1.73,1.06-2.39.45-.52,1.02-.91,1.73-1.17.7-.26,1.57-.39,2.62-.39h1.11c.45,0,1.26.04,2.45.11h3.01c1.93,0,3.45-.28,4.56-.84,1.11-.56,2-1.46,2.67-2.73.67-1.11,1.22-2.36,1.67-3.73.44-1.37.7-2.69.78-3.95v-1.11c-.37-.59-1.15-1.06-2.34-1.39Z"/>
        <path class="cls-5" d="M543.57,41.12h-9.8c-2.38-.07-4.17-.11-5.4-.11h-3.17v4.45c3.27-.07,5.51.26,6.74,1,1.22.74,1.84,2.12,1.84,4.12,0,.89-.17,1.97-.5,3.23-.33,1.26-.83,2.75-1.5,4.45l-9.91,24.38-11.13-28.5c-.45-1.19-.76-2.17-.95-2.95-.18-.78-.28-1.43-.28-1.95,0-1.41.68-2.41,2.06-3.01,1.37-.59,3.51-.85,6.4-.78v-4.45h-3.67c-1.56,0-4.08.04-7.57.11h-11.86c-.86,0-2.13-.04-3.84-.11h-4.9v4.45c2.67,0,4.6.69,5.79,2.06,1.19,1.37,2.67,4.25,4.45,8.63l16.81,41.19h7.35l17.48-38.52c2.6-5.64,4.6-9.3,6.01-10.97,1.41-1.67,3.19-2.47,5.34-2.39v-4.45h-2.11c-.82,0-2.04.04-3.67.11Z"/>
        <path class="cls-11" d="M563.27,32.89c2.82,0,5.12-.87,6.9-2.62,1.78-1.74,2.67-3.99,2.67-6.74s-.87-5.12-2.62-6.9c-1.74-1.78-4.03-2.67-6.85-2.67s-5.14.89-6.96,2.67c-1.82,1.78-2.73,4.08-2.73,6.9s.87,5.08,2.62,6.79c1.74,1.71,4.06,2.56,6.96,2.56Z"/>
        <path class="cls-12" d="M572.12,91.83c-.78-.63-1.17-2.24-1.17-4.84v-45.87l-5.23-1.56c-2.3,1.86-4.94,3.62-7.9,5.29-2.97,1.67-5.61,2.88-7.91,3.62v3.79c3.12-.15,5.07.45,5.85,1.78.78,1.34,1.17,4.49,1.17,9.46v23.16c0,2.67-.45,4.34-1.34,5.01-.89.67-2.9.97-6.01.89v4.67h2.62c1.07,0,2.8-.04,5.18-.11,1.56-.07,2.62-.11,3.17-.11h2.67c.78,0,2.28.04,4.51.11,3.49.07,5.96.11,7.4.11h3.17v-4.67c-3.34.15-5.4-.09-6.18-.72Z"/>
        <path class="cls-13" d="M623.83,83.82c-2.82,1.74-6.2,2.62-10.13,2.62-5.72,0-10.3-1.96-13.75-5.9-3.45-3.93-5.18-9.24-5.18-15.92,0-5.79,1.19-10.46,3.56-14.03,2.37-3.56,5.45-5.34,9.24-5.34,1.78,0,3.23.44,4.34,1.34,1.11.89,2.23,2.78,3.34,5.68,1.11,3.04,2.3,5.05,3.56,6.01,1.26.97,2.89,1.45,4.9,1.45,2.3,0,4.32-.85,6.07-2.56,1.74-1.71,2.62-3.64,2.62-5.79,0-3.27-1.76-5.99-5.29-8.18-3.53-2.19-8.11-3.29-13.75-3.29-8.91,0-16.57,3.25-22.99,9.74-6.42,6.5-9.63,14.08-9.63,22.77,0,7.72,2.38,13.97,7.13,18.76,4.75,4.79,11.09,7.18,19.04,7.18,6.97,0,12.86-1.98,17.65-5.96,4.79-3.97,8.11-9.59,9.96-16.87l-2.11-1c-2.9,4.45-5.75,7.55-8.57,9.3Z"/>
        <path class="cls-14" d="M680.72,83.65c-3.04,1.86-6.68,2.78-10.91,2.78-5.71,0-10.32-1.93-13.8-5.79-3.49-3.86-5.23-8.98-5.23-15.36v-2h5.06c2.26,0,6.18.04,11.75.11,4.38.08,7.38.11,9.02.11h3.45c3.26,0,5.64-.67,7.12-2,1.48-1.34,2.23-3.49,2.23-6.46,0-4.6-1.74-8.27-5.23-11.02-3.49-2.75-8.28-4.12-14.36-4.12-8.91,0-16.64,3.27-23.21,9.8-6.57,6.53-9.85,14.21-9.85,23.04,0,7.64,2.41,13.82,7.24,18.54,4.82,4.71,11.32,7.07,19.48,7.07,7.12,0,13.14-2.02,18.03-6.07,4.9-4.04,8.28-9.67,10.13-16.87l-2.11-1c-2.82,4.31-5.75,7.39-8.8,9.24ZM655.84,48.97c2.41-2.63,5.44-3.95,9.07-3.95,2.89,0,5.12.8,6.68,2.39s2.34,3.8,2.34,6.62c0,.74-.09,1.39-.28,1.95-.19.56-.47,1.06-.84,1.5-.3.37-.74.69-1.34.95-.6.26-1.26.46-2,.61-1.71.22-3.79.39-6.24.5-2.45.11-6.46.2-12.02.28.67-4.6,2.21-8.22,4.62-10.85Z"/>
        <path class="cls-15" d="M735.11,71.18c-1-1.93-2.54-3.63-4.62-5.12-1.34-.82-2.88-1.6-4.62-2.34-1.74-.74-4.47-1.63-8.18-2.67-5.42-1.56-8.91-2.97-10.46-4.23-1.56-1.26-2.34-2.82-2.34-4.67,0-2.15.8-3.82,2.39-5.01,1.59-1.19,3.84-1.78,6.74-1.78,4.15,0,7.74,1.1,10.74,3.28,3.01,2.19,5.32,5.36,6.96,9.52h2.56c0-.59.02-1.32.06-2.17.04-.85.09-2.21.17-4.06.07-2.82.13-4.81.17-5.96.04-1.15.06-2.06.06-2.73,0-.22-.06-.41-.17-.56-.11-.15-.32-.26-.61-.33-2.9-.89-5.62-1.52-8.18-1.89s-5.21-.56-7.96-.56c-6.53,0-11.99,1.88-16.37,5.62-4.38,3.75-6.57,8.55-6.57,14.42,0,2.3.48,4.32,1.45,6.07.96,1.74,2.41,3.29,4.34,4.62,1.19.74,2.6,1.45,4.23,2.11,1.63.67,4.15,1.52,7.57,2.56,5.79,1.78,9.53,3.4,11.24,4.84,1.71,1.45,2.56,3.28,2.56,5.51s-.8,4.12-2.39,5.46c-1.6,1.34-3.8,2-6.62,2-4.31,0-8-1.26-11.08-3.79-3.08-2.52-5.44-6.2-7.07-11.02h-2.67c0,2.38-.02,4.58-.05,6.62-.04,2.04-.13,4.21-.28,6.51-.07.74-.11,1.24-.11,1.5v.61c0,.52.05.89.17,1.11.11.22.32.41.61.56,3.49,1.41,6.4,2.28,8.74,2.62s5.18.5,8.52.5c6.75,0,12.21-1.91,16.37-5.73,4.15-3.82,6.23-8.74,6.23-14.75,0-2.52-.5-4.75-1.5-6.68Z"/>
      </g>
      <g>
        <path class="cls-10" d="M169.56,72.41c0-17.59,12.8-33.95,34.06-33.95,15.81,0,27.61,9.24,27.61,26.16s-12.8,34.07-33.95,34.07c-15.81,0-27.72-9.24-27.72-26.27ZM211.31,63.73c0-8.24-3.34-12.25-8.57-12.25-9.35,0-13.14,12.91-13.14,21.93,0,8.35,3.34,12.13,8.46,12.13,9.57,0,13.25-13.36,13.25-21.82Z"/>
        <path class="cls-10" d="M278.44,41.02l-2.78,11.91c-.11.67-.56.89-1.11.89h-12.69l-5.46,24.27c-1.11,5.01,1,6.23,4.12,6.23,2.78,0,4.9-.56,6.68-1,.78-.22,1.22.22,1,1l-2.45,10.69c-.11.45-.45.89-1,1-4.01,1.45-8.24,2.45-12.36,2.45-11.02,0-19.48-5.46-16.25-19.37l5.9-25.27h-6.35c-.67,0-1-.44-.89-1.11l2.78-11.91c.11-.67.56-.89,1.11-.89h6.57l3-13.47c.11-.67.56-.89,1.11-.89h18.15c.67,0,1,.45.89,1.11l-3.23,13.25h12.36c.67,0,1,.44.89,1.11Z"/>
        <path class="cls-10" d="M273.77,72.52c0-17.7,12.47-34.07,33.95-34.07,15.25,0,25.27,8.35,25.61,21.71,0,.67-.45,1-1,1h-17.03c-.56,0-1-.33-1-1-.34-5.79-3.67-8.57-8.02-8.57-8.68,0-12.47,12.58-12.47,21.71,0,8.46,3.12,12.25,8.13,12.25s8.8-3.9,10.35-9.24c.11-.56.56-.89,1.11-.89h17.03c.67,0,1,.34.89.89-3.12,13.14-13.81,22.38-29.95,22.38s-27.61-9.13-27.61-26.16Z"/>
      </g>
    </g>
  </g>
</svg>