<svg width="127" height="127" viewBox="0 0 127 127" fill="none" xmlns="http://www.w3.org/2000/svg">
<g clip-path="url(#clip0_2051_329)">
<path d="M109.13 0.5C118.494 0.5 126.09 8.09612 126.09 17.46C126.09 26.8238 118.494 34.4199 109.13 34.4199C99.7661 34.4199 92.17 26.8238 92.17 17.46C92.17 8.09613 99.7661 0.500021 109.13 0.5Z" stroke="url(#paint0_linear_2051_329)"/>
<path d="M17.46 0.5C26.6383 0.5 34.0981 7.80393 34.3799 16.9053L34.416 18.0605L34.46 18.0156C35.5229 33.1547 47.5937 45.2151 62.7236 46.2783L62.6807 46.3223L63.834 46.3594C72.7604 46.6509 79.9292 53.8196 80.2207 62.7461L80.2578 63.8994L80.3008 63.8555C81.3632 78.9946 93.4245 91.0552 108.563 92.1182L108.482 92.2002H109.684L110.109 92.2188C119.022 92.7246 126.09 100.095 126.09 109.13C126.09 118.494 118.494 126.09 109.13 126.09C99.9522 126.1 92.4916 118.796 92.2002 109.684L92.1631 108.529L92.1182 108.573C91.0547 93.4345 78.9855 81.3733 63.8555 80.3105L63.8994 80.2676L62.7461 80.2305C53.8196 79.939 46.6508 72.7703 46.3594 63.8438L46.3223 62.6904L46.2783 62.7334C45.2149 47.5943 33.1451 35.533 18.0146 34.4707L18.0596 34.4268L16.9062 34.3906C7.80429 34.0992 0.5 26.6383 0.5 17.46C0.500021 8.09613 8.09613 0.500021 17.46 0.5Z" stroke="url(#paint1_linear_2051_329)"/>
<path d="M63.29 0.5C72.4783 0.5 79.939 7.80407 80.2304 16.916L80.2675 18.0703L80.3105 18.0264C81.3736 33.156 93.4355 45.2157 108.574 46.2783L108.53 46.3232L109.685 46.3594C118.796 46.651 126.09 54.1116 126.09 63.29C126.09 72.6539 118.494 80.25 109.13 80.25C99.9514 80.2499 92.4916 72.9554 92.2001 63.8438L92.163 62.6895L92.1181 62.7334C91.0547 47.5945 78.9855 35.5334 63.8554 34.4707L63.9003 34.4268L62.746 34.3906C53.6339 34.0992 46.33 26.6381 46.33 17.46C46.33 8.09947 54.1028 0.500021 63.29 0.5Z" stroke="url(#paint2_linear_2051_329)"/>
<path d="M17.4697 46.33C26.6483 46.33 34.109 53.6245 34.4004 62.7363L34.4375 63.8906L34.4805 63.8466C35.5493 79.1938 47.9387 91.3773 63.3604 92.1464V92.8974L64.0674 92.1894C73.0747 92.5945 80.25 100.007 80.25 109.11C80.2499 118.474 72.6538 126.07 63.29 126.07C54.1115 126.07 46.6508 118.776 46.3594 109.664L46.3232 108.511L46.2783 108.555C45.2151 93.4243 33.1452 81.3631 18.0146 80.3007L18.0596 80.2568L16.9062 80.2206C7.80429 79.9292 0.5 72.4683 0.5 63.29C0.500021 53.9264 8.09582 46.3302 17.4697 46.33Z" stroke="url(#paint3_linear_2051_329)"/>
<path d="M17.46 92.17C26.8238 92.17 34.4199 99.7661 34.4199 109.13C34.4199 118.494 26.8238 126.09 17.46 126.09C8.09612 126.09 0.5 118.494 0.5 109.13C0.500025 99.9024 7.86058 92.3981 17.0215 92.1749L17.46 92.17Z" stroke="url(#paint4_linear_2051_329)"/>
</g>
<defs>
<linearGradient id="paint0_linear_2051_329" x1="47.78" y1="-43.88" x2="164.67" y2="73" gradientUnits="userSpaceOnUse">
<stop stop-color="#20CFEA"/>
<stop offset="0.14" stop-color="#27BDE6"/>
<stop offset="0.41" stop-color="#3A8EDE"/>
<stop offset="0.78" stop-color="#5945D1"/>
<stop offset="1" stop-color="#6D18C9"/>
</linearGradient>
<linearGradient id="paint1_linear_2051_329" x1="1.95" y1="1.95" x2="118.83" y2="118.84" gradientUnits="userSpaceOnUse">
<stop stop-color="#20CFEA"/>
<stop offset="0.14" stop-color="#27BDE6"/>
<stop offset="0.41" stop-color="#3A8EDE"/>
<stop offset="0.78" stop-color="#5945D1"/>
<stop offset="1" stop-color="#6D18C9"/>
</linearGradient>
<linearGradient id="paint2_linear_2051_329" x1="24.87" y1="-20.97" x2="141.75" y2="95.92" gradientUnits="userSpaceOnUse">
<stop stop-color="#20CFEA"/>
<stop offset="0.14" stop-color="#27BDE6"/>
<stop offset="0.41" stop-color="#3A8EDE"/>
<stop offset="0.78" stop-color="#5945D1"/>
<stop offset="1" stop-color="#6D18C9"/>
</linearGradient>
<linearGradient id="paint3_linear_2051_329" x1="-20.97" y1="24.86" x2="95.92" y2="141.75" gradientUnits="userSpaceOnUse">
<stop stop-color="#20CFEA"/>
<stop offset="0.14" stop-color="#27BDE6"/>
<stop offset="0.41" stop-color="#3A8EDE"/>
<stop offset="0.78" stop-color="#5945D1"/>
<stop offset="1" stop-color="#6D18C9"/>
</linearGradient>
<linearGradient id="paint4_linear_2051_329" x1="-43.88" y1="47.78" x2="73" y2="164.67" gradientUnits="userSpaceOnUse">
<stop stop-color="#20CFEA"/>
<stop offset="0.14" stop-color="#27BDE6"/>
<stop offset="0.41" stop-color="#3A8EDE"/>
<stop offset="0.78" stop-color="#5945D1"/>
<stop offset="1" stop-color="#6D18C9"/>
</linearGradient>
<clipPath id="clip0_2051_329">
<rect width="126.59" height="126.59" fill="white"/>
</clipPath>
</defs>
</svg>
