<?xml version="1.0" encoding="UTF-8"?>
<svg id="Layer_2" data-name="Layer 2" xmlns="http://www.w3.org/2000/svg" xmlns:xlink="http://www.w3.org/1999/xlink" viewBox="0 0 126.59 126.59">
  <defs>
    <style>
      .cls-1 {
        fill: url(#linear-gradient-5);
      }

      .cls-2 {
        fill: url(#linear-gradient-4);
      }

      .cls-3 {
        fill: url(#linear-gradient-3);
      }

      .cls-4 {
        fill: url(#linear-gradient-2);
      }

      .cls-5 {
        fill: url(#linear-gradient);
      }
    </style>
    <linearGradient id="linear-gradient" x1="47.78" y1="-43.88" x2="164.67" y2="73" gradientUnits="userSpaceOnUse">
      <stop offset="0" stop-color="#20cfea"/>
      <stop offset=".14" stop-color="#27bde6"/>
      <stop offset=".41" stop-color="#3a8ede"/>
      <stop offset=".78" stop-color="#5945d1"/>
      <stop offset="1" stop-color="#6d18c9"/>
    </linearGradient>
    <linearGradient id="linear-gradient-2" x1="1.95" y1="1.95" x2="118.83" y2="118.84" xlink:href="#linear-gradient"/>
    <linearGradient id="linear-gradient-3" x1="24.87" y1="-20.97" x2="141.75" y2="95.92" xlink:href="#linear-gradient"/>
    <linearGradient id="linear-gradient-4" x1="-20.97" y1="24.86" x2="95.92" y2="141.75" xlink:href="#linear-gradient"/>
    <linearGradient id="linear-gradient-5" x1="-43.88" y1="47.78" x2="73" y2="164.67" xlink:href="#linear-gradient"/>
  </defs>
  <g id="Layer_1-2" data-name="Layer 1">
    <g>
      <path class="cls-5" d="M109.13,34.92c9.64,0,17.46-7.82,17.46-17.46C126.59,7.82,118.77,0,109.13,0c-9.64,0-17.46,7.82-17.46,17.46,0,9.64,7.82,17.46,17.46,17.46Z"/>
      <path class="cls-4" d="M109.69,91.7l.02-.02c-15.78-.53-28.44-13.19-28.97-28.97l-.02.02c-.3-9.19-7.68-16.57-16.87-16.87l.02-.02c-15.77-.53-28.44-13.19-28.97-28.97l-.02.02C34.59,7.52,26.91,0,17.46,0,7.82,0,0,7.82,0,17.46c0,9.45,7.52,17.13,16.89,17.43l-.02.02c15.77.53,28.44,13.19,28.97,28.97l.02-.02c.3,9.19,7.68,16.57,16.87,16.87l-.02.02c15.77.53,28.44,13.19,28.97,28.97l.02-.02c.3,9.38,7.98,16.9,17.43,16.89,9.64,0,17.46-7.82,17.46-17.46,0-9.45-7.51-17.13-16.89-17.43Z"/>
      <path class="cls-3" d="M62.73,34.89l-.02.02c15.77.53,28.44,13.19,28.97,28.97l.02-.02c.3,9.38,7.98,16.89,17.43,16.89,9.64,0,17.46-7.82,17.46-17.46,0-9.45-7.51-17.13-16.89-17.43l.02-.02c-15.78-.53-28.44-13.19-28.97-28.96l-.02.02C80.43,7.52,72.75,0,63.29,0s-17.46,7.82-17.46,17.46c0,9.45,7.52,17.13,16.9,17.43Z"/>
      <path class="cls-2" d="M63.86,91.69l.02-.02c-15.77-.53-28.44-13.19-28.96-28.97l-.02.02c-.3-9.38-7.98-16.89-17.43-16.89C7.82,45.83,0,53.65,0,63.29c0,9.45,7.52,17.13,16.89,17.43l-.02.02c15.77.53,28.44,13.19,28.97,28.96l.02-.02c.3,9.38,7.98,16.89,17.43,16.89,9.64,0,17.46-7.82,17.46-17.46,0-9.45-7.51-17.13-16.89-17.43Z"/>
      <path class="cls-1" d="M17.46,91.67C7.82,91.66,0,99.48,0,109.13c0,9.64,7.82,17.46,17.46,17.46s17.46-7.82,17.46-17.46c0-9.64-7.82-17.46-17.46-17.46Z"/>
    </g>
  </g>
</svg>