<?xml version="1.0" encoding="UTF-8"?>
<svg id="Layer_2" data-name="Layer 2" xmlns="http://www.w3.org/2000/svg" xmlns:xlink="http://www.w3.org/1999/xlink" viewBox="0 0 322.87 322.88">
  <defs>
    <style>
      .cls-1 {
        stroke: url(#linear-gradient);
      }

      .cls-1, .cls-2, .cls-3, .cls-4, .cls-5 {
        fill: none;
        stroke-miterlimit: 10;
        stroke-width: 2;
      }

      .cls-2 {
        stroke: url(#linear-gradient-2);
      }

      .cls-3 {
        stroke: url(#linear-gradient-4);
      }

      .cls-4 {
        stroke: url(#linear-gradient-3);
      }

      .cls-5 {
        stroke: url(#linear-gradient-5);
      }
    </style>
    <linearGradient id="linear-gradient" x1="233.45" y1="44.72" x2="322.87" y2="44.72" gradientUnits="userSpaceOnUse">
      <stop offset="0" stop-color="#20cfea"/>
      <stop offset=".14" stop-color="#27bde6"/>
      <stop offset=".41" stop-color="#3a8ede"/>
      <stop offset=".78" stop-color="#5945d1"/>
      <stop offset="1" stop-color="#6d18c9"/>
    </linearGradient>
    <linearGradient id="linear-gradient-2" x1=".84" y1="161.44" x2="322.04" y2="161.44" xlink:href="#linear-gradient"/>
    <linearGradient id="linear-gradient-3" x1="117.56" y1="103.08" x2="322.04" y2="103.08" xlink:href="#linear-gradient"/>
    <linearGradient id="linear-gradient-4" x1=".84" y1="219.79" x2="205.32" y2="219.79" xlink:href="#linear-gradient"/>
    <linearGradient id="linear-gradient-5" x1="0" y1="278.16" x2="89.43" y2="278.16" xlink:href="#linear-gradient"/>
  </defs>
  <g id="Layer_1-2" data-name="Layer 1">
    <g>
      <path class="cls-1" d="M278.16,89.18c24.56,0,44.47-19.91,44.46-44.47,0-24.55-19.9-44.47-44.46-44.46-24.56,0-44.47,19.9-44.46,44.46,0,24.56,19.91,44.47,44.46,44.47Z"/>
      <path class="cls-2" d="M279.6,233.76l.05-.05c-40.17-1.34-72.42-33.59-73.77-73.77l-.04.05c-.76-23.39-19.56-42.19-42.95-42.95l.04-.04c-40.17-1.35-72.42-33.6-73.77-73.77l-.04.04C88.34,19.39,68.79.26,44.71.26c-57.28.15-58.57,86.93-1.44,88.86l-.05.05c40.17,1.35,72.42,33.6,73.77,73.77l.05-.05c.76,23.4,19.55,42.2,42.95,42.95l-.05.04c40.17,1.35,72.42,33.6,73.77,73.77l.05-.05c.77,23.88,20.33,43.03,44.39,43.02,57.28-.16,58.58-86.92,1.44-88.86Z"/>
      <path class="cls-4" d="M160,89.11l-.05.05c40.17,1.35,72.42,33.6,73.77,73.77l.05-.05c.77,23.88,20.32,43.02,44.39,43.02,57.28-.15,58.59-86.93,1.44-88.86l.05-.05c-40.17-1.34-72.42-33.59-73.77-73.76l-.05.05C205.07,19.39,185.51.25,161.44.25c-57.28.15-58.57,86.93-1.44,88.86Z"/>
      <path class="cls-3" d="M162.88,233.76l.04-.05c-40.16-1.35-72.42-33.6-73.76-73.76l-.05.05c-.76-23.88-20.32-43.02-44.39-43.02-57.28.15-58.57,86.94-1.44,88.86l-.04.05c40.17,1.34,72.42,33.59,73.77,73.76l.04-.04c.78,23.88,20.32,43.02,44.39,43.02,57.28-.15,58.58-86.92,1.44-88.86Z"/>
      <path class="cls-5" d="M44.72,233.69c-24.56,0-44.47,19.91-44.47,44.47,0,24.55,19.91,44.47,44.47,44.47s44.47-19.91,44.46-44.47c0-24.55-19.9-44.46-44.46-44.46Z"/>
    </g>
  </g>
</svg>
