<?xml version="1.0" encoding="UTF-8"?>
<svg id="Layer_2" data-name="Layer 2" xmlns="http://www.w3.org/2000/svg" viewBox="0 0 215.11 51.06">
  <defs>
    <style>
      .cls-1 {
        fill: #342e51;
      }

      .cls-2 {
        fill: #6c2db5;
      }
    </style>
  </defs>
  <g id="Layer_1-2" data-name="Layer 1">
    <g>
      <g>
        <path class="cls-1" d="M118.97,13.04l-9.17,25.16h6.45l1.04-3.12h9.72l1.04,3.12h6.3l-9.02-25.16h-6.36ZM118.88,30.29l3.27-9.94,3.27,9.94h-6.54Z"/>
        <path class="cls-1" d="M145.93,32.52c-4.01,0-6.91-3.24-6.91-6.91s2.9-6.91,6.91-6.91c3.58,0,6.33,2.54,6.82,5.69h6.21c-.46-6.45-6.15-11.86-13.03-11.86-7.34,0-13.09,6.08-13.09,13.09s5.75,13.06,13.09,13.06c6.91,0,12.6-5.41,13.06-11.89h-6.24c-.49,3.18-3.21,5.75-6.82,5.75Z"/>
        <path class="cls-1" d="M178.85,23.1c0-5.23-3.09-10.09-11.41-10.09h-6.3v25.23h6.15v-5.01h1.04c.67,0,1.32-.03,1.9-.12l2.11,5.11h7.12l-3.82-7.4c2.2-1.9,3.21-4.74,3.21-7.7ZM168.52,27.23h-1.22v-8.23h1.22c2.81,0,4.31,1.71,4.31,4.1s-1.47,4.13-4.31,4.13Z"/>
        <polygon class="cls-1" points="181.67 38.2 196.04 38.2 196.04 32.36 187.81 32.36 187.81 27.78 193.91 27.78 193.91 23.19 187.81 23.19 187.81 18.85 196.04 18.85 196.04 13.07 181.67 13.07 181.67 38.2"/>
        <path class="cls-1" d="M207.19,22.52c-1.87-.64-3.42-1.16-3.42-2.72,0-1.1.89-1.96,2.26-1.96,1.65,0,2.45,1.16,2.51,2.63l5.63.03c-.03-4.8-3.24-7.98-8.13-7.98-4.56,0-8.07,2.87-8.07,7.19s2.48,6.05,6.85,7.58c2.69.95,4.1,1.62,4.1,3.3,0,1.44-1.07,2.48-2.78,2.48-1.99,0-2.97-1.41-3.03-3.06h-6.02c.03,5.11,3.67,8.59,9.08,8.59,5.08,0,8.96-2.94,8.96-7.92,0-5.44-3.64-6.73-7.92-8.16Z"/>
        <path class="cls-1" d="M98.57,12.28c-7.61,0-13.09,6.08-13.09,13.06,0,.97.12,1.92.32,2.84h-3.16v-5.26h-5.66v5.26h-4.64l5.26-15.12h-5.73l-7.32,19.84v.25h12.44v5.29h5.66v-5.29h5.41c2.32,3.16,6.05,5.27,10.52,5.27,7.58,0,13.06-6.08,13.06-13.09s-5.47-13.06-13.06-13.06ZM98.57,32.24c-4.01,0-6.91-3.15-6.91-6.91s2.9-6.88,6.91-6.88,6.88,3.12,6.88,6.88-2.9,6.91-6.88,6.91Z"/>
      </g>
      <g>
        <path class="cls-2" d="M30.7,22.25c4.28,0,7.38-3.44,7.38-7.39s-3.09-7.38-7.38-7.38-7.39,3.44-7.39,7.38,3.09,7.39,7.39,7.39ZM30.7,10.97c2.25,0,3.89,1.76,3.89,3.89s-1.64,3.9-3.89,3.9-3.9-1.78-3.9-3.9,1.64-3.89,3.9-3.89Z"/>
        <polygon class="cls-2" points="22.14 20.63 18.29 20.63 18.29 24.2 15.13 24.2 18.71 13.92 14.81 13.92 9.83 27.41 9.83 27.58 18.29 27.58 18.29 33.41 22.14 33.41 22.14 27.58 39.44 27.58 39.44 24.2 22.14 24.2 22.14 20.63"/>
        <path class="cls-2" d="M28.92,29.8l-5.25,14.41h3.7l.6-1.79h5.57l.6,1.79h3.61l-5.17-14.41h-3.64ZM28.87,39.68l1.87-5.69,1.87,5.69h-3.75Z"/>
        <polygon class="cls-2" points="4.27 4.27 11.23 4.27 11.23 0 0 0 0 51.06 11.23 51.06 11.23 46.8 4.27 46.8 4.27 4.27"/>
        <polygon class="cls-2" points="40.08 0 40.08 4.27 47.05 4.27 47.05 46.8 40.08 46.8 40.08 51.06 51.31 51.06 51.31 0 40.08 0"/>
      </g>
    </g>
  </g>
</svg>