<?xml version="1.0" encoding="UTF-8"?>
<svg id="Layer_2" data-name="Layer 2" xmlns="http://www.w3.org/2000/svg" viewBox="0 0 243.15 49.98">
  <defs>
    <style>
      .cls-1 {
        fill-rule: evenodd;
      }
    </style>
  </defs>
  <g id="Layer_1-2" data-name="Layer 1">
    <g>
      <path d="M24.48,46.37v-11.88c-2.02,8.35-7.2,15.48-14.69,15.48-5.33,0-9.79-3.38-9.79-9.43,0-7.42,7.56-10.3,16.49-12.82l7.99-2.3c-.14-7.13-4.03-9.86-9.36-9.86-4.03,0-7.99,1.73-11.67,6.12l-.72-.65c4.03-4.97,9.58-8.28,16.13-8.28,8.71,0,12.82,4.68,12.82,13.46v13.9c0,5.18.5,7.34,2.88,8.14v1.01h-7.2c-1.87,0-2.88-1.01-2.88-2.88ZM13.39,44.72c7.06,0,11.02-9.94,11.09-16.42v-1.87l-7.7,2.23c-3.38.94-10.08,3.38-10.08,9.36,0,4.75,3.38,6.7,6.7,6.7Z"/>
      <path d="M38.02,48.25c2.38-.79,2.88-2.95,2.88-8.14v-16.56c0-4.25-1.08-4.97-2.88-5.76v-1.01l9.5-4.18.72.58v6.05c3.96-3.24,9.14-6.48,14.76-6.48,5.04,0,8.35,1.94,9.72,6.55,3.96-3.24,9.22-6.55,14.91-6.55,6.62,0,10.37,3.46,10.37,11.88v15.48c0,5.18.5,7.34,2.88,8.14v1.01h-13.1v-1.01c2.38-.79,2.88-2.95,2.88-8.14v-14.19c0-6.48-2.09-10.3-7.42-10.3-3.38,0-6.48,1.66-10.3,4.68.29,1.3.43,2.74.43,4.32v15.48c0,5.18.5,7.34,2.88,8.14v1.01h-13.1v-1.01c2.38-.79,2.88-2.95,2.88-8.14v-14.19c0-6.48-2.09-10.3-7.42-10.3-3.38,0-6.48,1.66-10.37,4.83v19.66c0,5.18.5,7.34,2.88,8.14v1.01h-13.1v-1.01Z"/>
      <path d="M128.59,46.37v-11.88c-2.02,8.35-7.2,15.48-14.69,15.48-5.33,0-9.79-3.38-9.79-9.43,0-7.42,7.56-10.3,16.49-12.82l7.99-2.3c-.14-7.13-4.03-9.86-9.36-9.86-4.03,0-7.99,1.73-11.67,6.12l-.72-.65c4.03-4.97,9.58-8.28,16.13-8.28,8.71,0,12.82,4.68,12.82,13.46v13.9c0,5.18.5,7.34,2.88,8.14v1.01h-7.2c-1.87,0-2.88-1.01-2.88-2.88ZM117.5,44.72c7.06,0,11.02-9.94,11.09-16.42v-1.87l-7.7,2.23c-3.38.94-10.08,3.38-10.08,9.36,0,4.75,3.38,6.7,6.7,6.7Z"/>
      <path d="M142.13,48.25c2.38-.79,2.88-2.95,2.88-8.14v-16.56c0-4.25-1.08-4.97-2.88-5.76v-1.01l9.5-4.18.72.58v6.05c3.96-3.24,9.14-6.48,14.76-6.48,6.62,0,11.09,3.46,11.09,11.88v15.48c0,5.18.5,7.34,2.88,8.14v1.01h-13.11v-1.01c2.38-.79,2.88-2.95,2.88-8.14v-14.19c0-6.48-2.81-10.3-8.14-10.3-3.38,0-6.48,1.66-10.37,4.83v19.66c0,5.18.5,7.34,2.88,8.14v1.01h-13.11v-1.01Z"/>
      <path d="M209.16,46.37v-11.88c-2.02,8.35-7.2,15.48-14.69,15.48-5.33,0-9.79-3.38-9.79-9.43,0-7.42,7.56-10.3,16.49-12.82l7.99-2.3c-.14-7.13-4.03-9.86-9.36-9.86-4.03,0-7.99,1.73-11.67,6.12l-.72-.65c4.03-4.97,9.58-8.28,16.13-8.28,8.71,0,12.82,4.68,12.82,13.46v13.9c0,5.18.5,7.34,2.88,8.14v1.01h-7.2c-1.87,0-2.88-1.01-2.88-2.88ZM198.07,44.72c7.06,0,11.02-9.94,11.09-16.42v-1.87l-7.7,2.23c-3.38.94-10.08,3.38-10.08,9.36,0,4.75,3.38,6.7,6.7,6.7Z"/>
      <path class="cls-1" d="M243.15,0l-33.99.12c11.48,5.04,18.39,16.91,17.1,29.37L243.15,0ZM221.56,4.08l14.67-.05-7.29,12.73c-1.47-4.73-3.99-9.07-7.38-12.68Z"/>
    </g>
  </g>
</svg>