<?xml version="1.0" encoding="UTF-8"?>
<svg id="Layer_2" data-name="Layer 2" xmlns="http://www.w3.org/2000/svg" viewBox="0 0 370.32 83.03">
  <defs>
    <style>
      .cls-1 {
        fill: #ff8a00;
      }

      .cls-2 {
        fill: #2e4064;
      }
    </style>
  </defs>
  <g id="Layer_1-2" data-name="Layer 1">
    <g>
      <g>
        <rect class="cls-1" x="11.06" y="39.23" width="68.23" height="4.23"/>
        <polygon class="cls-1" points="8.52 77.06 5.54 74.08 38.06 41.56 5.11 8.61 8.09 5.62 44.03 41.56 8.52 77.06"/>
        <circle class="cls-1" cx="39.01" cy="41.34" r="12.29"/>
        <circle class="cls-1" cx="8.97" cy="8.97" r="8.97"/>
        <circle class="cls-1" cx="8.97" cy="74.06" r="8.97"/>
        <circle class="cls-1" cx="79.29" cy="41.34" r="8.97"/>
        <circle class="cls-1" cx="10.87" cy="41.34" r="5.16"/>
      </g>
      <g>
        <path class="cls-1" d="M209.68,21.21c-.92-.88-1.37-1.97-1.37-3.28s.46-2.4,1.37-3.28c.91-.88,2.06-1.32,3.44-1.32s2.53.44,3.44,1.32c.91.88,1.37,1.97,1.37,3.28s-.46,2.4-1.37,3.28c-.92.88-2.06,1.32-3.44,1.32s-2.53-.44-3.44-1.32Z"/>
        <g>
          <path class="cls-2" d="M104.6,33.31c1.31-2.41,3.12-4.27,5.43-5.6,2.31-1.33,4.96-1.99,7.95-1.99,3.84,0,7.03.96,9.55,2.88,2.52,1.92,4.21,4.62,5.07,8.09h-8.46c-.45-1.34-1.2-2.4-2.27-3.16-1.06-.76-2.38-1.15-3.95-1.15-2.24,0-4.01.81-5.32,2.44-1.31,1.62-1.96,3.93-1.96,6.92s.65,5.24,1.96,6.86c1.31,1.62,3.08,2.44,5.32,2.44,3.17,0,5.24-1.42,6.22-4.26h8.46c-.86,3.36-2.56,6.03-5.1,8.01-2.54,1.98-5.71,2.97-9.52,2.97-2.99,0-5.64-.66-7.95-1.99-2.32-1.32-4.13-3.19-5.43-5.6-1.31-2.41-1.96-5.22-1.96-8.43s.65-6.02,1.96-8.43Z"/>
          <path class="cls-2" d="M160.71,27.32c1.83,1.03,3.26,2.54,4.28,4.54,1.03,2,1.54,4.4,1.54,7.2v18.2h-7.84v-17.14c0-2.46-.62-4.36-1.85-5.68-1.23-1.32-2.91-1.99-5.04-1.99s-3.87.66-5.12,1.99c-1.25,1.33-1.88,3.22-1.88,5.68v17.14h-7.84V19.73l3.92-3.92h3.92v14.28c1.01-1.34,2.35-2.4,4.03-3.16,1.68-.76,3.55-1.15,5.6-1.15,2.35,0,4.44.51,6.27,1.54Z"/>
          <path class="cls-2" d="M172.44,33.28c1.25-2.43,2.95-4.29,5.1-5.6,2.15-1.31,4.54-1.96,7.2-1.96,2.31,0,4.34.47,6.08,1.4,1.74.93,3.13,2.11,4.17,3.53v-4.42h7.9v31.02h-7.9v-4.54c-1.01,1.46-2.4,2.66-4.17,3.61-1.77.95-3.82,1.43-6.13,1.43-2.61,0-4.99-.67-7.14-2.02-2.15-1.34-3.85-3.24-5.1-5.68-1.25-2.44-1.88-5.25-1.88-8.43s.62-5.92,1.88-8.34ZM193.86,36.84c-.75-1.36-1.76-2.41-3.02-3.14-1.27-.73-2.63-1.09-4.09-1.09s-2.8.35-4.03,1.06c-1.23.71-2.23,1.75-3,3.11-.77,1.36-1.15,2.98-1.15,4.84s.38,3.5,1.15,4.9c.76,1.4,1.77,2.47,3.02,3.22,1.25.75,2.58,1.12,4,1.12s2.82-.36,4.09-1.09c1.27-.73,2.28-1.77,3.02-3.14.75-1.36,1.12-3,1.12-4.9s-.37-3.54-1.12-4.9Z"/>
          <rect class="cls-2" x="209.15" y="26.23" width="7.84" height="31.02"/>
          <path class="cls-2" d="M249.47,29.28c2.28,2.33,3.42,5.59,3.42,9.77v18.2h-7.84v-17.14c0-2.46-.62-4.36-1.85-5.68-1.23-1.32-2.91-1.99-5.04-1.99s-3.87.66-5.12,1.99c-1.25,1.33-1.88,3.22-1.88,5.68v17.14h-7.84v-31.02h7.84v3.86c1.04-1.34,2.38-2.4,4-3.16,1.62-.76,3.41-1.15,5.35-1.15,3.7,0,6.68,1.17,8.96,3.5Z"/>
          <path class="cls-2" d="M262.85,15.81h3.92v41.44h-7.84V19.73l3.92-3.92Z"/>
          <path class="cls-2" d="M272.96,33.28c1.25-2.43,2.95-4.29,5.1-5.6,2.15-1.31,4.54-1.96,7.2-1.96,2.31,0,4.34.47,6.08,1.4,1.74.93,3.13,2.11,4.17,3.53v-4.42h7.9v31.02h-7.9v-4.54c-1.01,1.46-2.4,2.66-4.17,3.61s-3.82,1.43-6.13,1.43c-2.61,0-4.99-.67-7.14-2.02-2.15-1.34-3.85-3.24-5.1-5.68-1.25-2.44-1.88-5.25-1.88-8.43s.62-5.92,1.88-8.34ZM294.38,36.84c-.75-1.36-1.75-2.41-3.02-3.14-1.27-.73-2.63-1.09-4.09-1.09s-2.8.35-4.03,1.06c-1.23.71-2.23,1.75-3,3.11-.77,1.36-1.15,2.98-1.15,4.84s.38,3.5,1.15,4.9c.76,1.4,1.77,2.47,3.02,3.22,1.25.75,2.58,1.12,4,1.12s2.82-.36,4.09-1.09c1.27-.73,2.28-1.77,3.02-3.14.75-1.36,1.12-3,1.12-4.9s-.37-3.54-1.12-4.9Z"/>
          <path class="cls-2" d="M321.68,27.12c1.77-.93,3.8-1.4,6.08-1.4,2.65,0,5.05.65,7.2,1.96,2.15,1.31,3.84,3.16,5.1,5.57,1.25,2.41,1.88,5.2,1.88,8.37s-.63,5.98-1.88,8.43c-1.25,2.45-2.95,4.34-5.1,5.68-2.15,1.34-4.55,2.02-7.2,2.02-2.32,0-4.34-.46-6.08-1.37s-3.13-2.1-4.17-3.56v4.42h-7.84V19.73l3.92-3.92h3.92v14.95c1.01-1.49,2.4-2.71,4.17-3.64ZM332.77,36.78c-.77-1.36-1.77-2.4-3.02-3.11-1.25-.71-2.6-1.06-4.06-1.06s-2.75.36-4,1.09c-1.25.73-2.26,1.78-3.02,3.16-.77,1.38-1.15,3.01-1.15,4.87s.38,3.49,1.15,4.87,1.77,2.44,3.02,3.16c1.25.73,2.58,1.09,4,1.09s2.81-.37,4.06-1.12c1.25-.75,2.26-1.81,3.02-3.19.76-1.38,1.15-3.02,1.15-4.93s-.38-3.48-1.15-4.84Z"/>
          <path class="cls-2" d="M351.28,56.38c-2.02-.91-3.61-2.16-4.79-3.72-1.18-1.57-1.82-3.3-1.93-5.21h7.9c.15,1.2.74,2.18,1.76,2.97,1.03.78,2.3,1.18,3.84,1.18s2.66-.3,3.5-.9c.84-.6,1.26-1.36,1.26-2.3,0-1.01-.51-1.76-1.54-2.27-1.03-.5-2.66-1.05-4.9-1.65-2.32-.56-4.21-1.14-5.68-1.74-1.48-.6-2.74-1.51-3.81-2.74-1.06-1.23-1.6-2.89-1.6-4.98,0-1.72.49-3.28,1.48-4.7.99-1.42,2.41-2.54,4.26-3.36,1.85-.82,4.02-1.23,6.52-1.23,3.7,0,6.64.92,8.85,2.77,2.2,1.85,3.42,4.34,3.64,7.48h-7.5c-.11-1.23-.63-2.21-1.54-2.94-.92-.73-2.14-1.09-3.67-1.09-1.42,0-2.51.26-3.28.78-.77.52-1.15,1.25-1.15,2.18,0,1.04.52,1.84,1.57,2.38s2.67,1.09,4.87,1.65c2.24.56,4.09,1.14,5.54,1.74,1.46.6,2.72,1.52,3.78,2.77s1.61,2.9,1.65,4.96c0,1.79-.5,3.4-1.48,4.82-.99,1.42-2.41,2.53-4.26,3.33-1.85.8-4,1.2-6.47,1.2s-4.82-.46-6.83-1.37Z"/>
        </g>
      </g>
    </g>
  </g>
</svg>