<?xml version="1.0" encoding="UTF-8"?>
<svg id="Layer_2" data-name="Layer 2" xmlns="http://www.w3.org/2000/svg" viewBox="0 0 285.62 40.34">
  <g id="Layer_1-2" data-name="Layer 1">
    <g>
      <path d="M20.9,24c-2.12,3.36-6.56,4.36-9.92,2.25-3.36-2.12-4.36-6.56-2.25-9.92,2.12-3.36,6.56-4.36,9.92-2.25.91.57,1.67,1.34,2.25,2.25l6.63-3.81C23.3,5.51,14.18,3.26,7.17,7.49.16,11.72-2.1,20.83,2.13,27.85c4.23,7.01,13.35,9.27,20.36,5.03,2.06-1.24,3.79-2.97,5.03-5.03l-6.63-3.84Z"/>
      <polygon points="54.33 27.36 40.39 27.36 40.39 5.34 32.75 5.34 32.75 27.36 32.75 35 32.75 35 40.39 35 40.39 35 54.33 35 54.33 27.36"/>
      <polygon points="116.83 5.33 110.21 20.16 109.87 20.16 103.25 5.33 95.21 5.33 108.44 35 111.63 35 124.87 5.33 116.83 5.33"/>
      <path d="M147.97,24.47c2.79-1.4,4.54-3.78,4.86-7.66.55-6.54-3.54-11.1-9.34-11.47h-13.69v29.64h7.67v-9.36h2.88l6.43,9.37h8.42l-7.22-10.51ZM141.3,19.3h-3.83v-7.65h3.83c2.12-.07,3.89,1.59,3.96,3.71s-1.59,3.89-3.71,3.96c-.09,0-.17,0-.26,0v-.02Z"/>
      <polygon points="195.13 27.36 181.18 27.36 181.18 5.34 173.55 5.34 173.55 27.36 173.55 35 173.55 35 181.18 35 181.18 35 195.13 35 195.13 27.36"/>
      <path d="M221.97,35.01h8.04l-13.24-29.68h-3.18l-13.24,29.68h8.04l.78-1.76h12.01l.79,1.76ZM212.58,25.61l2.43-5.44h.34l2.43,5.44h-5.19Z"/>
      <path d="M254.14,19.07s2.95-3.62.76-8.79c-1.26-2.97-3.94-4.46-7.03-4.75-1.63-.15-2.6-.17-4.83-.2-3.6-.05-7.8,0-7.8,0v29.66s10.17.08,15.1,0c1.74,0,3.44-.48,4.91-1.41,4.84-3.19,4.89-12.47-1.11-14.51ZM242.13,11.62h3.83c2.12,0,3.23,1.26,3.23,2.81s-1.12,2.81-3.23,2.81h-3.83v-5.62ZM250.43,28.04c-.49.37-1.09.58-1.7.58h-6.61v-5.64h6.61c1.55,0,2.81,1.25,2.81,2.8,0,.43-.1.85-.28,1.23-.16.43-.45.79-.84,1.03h.01Z"/>
      <path d="M282.72,19.56c-2.27-1.8-6.07-2.97-7.48-3.32-1.67-.43-3.28-.98-3.28-2.23,0-1.05.87-2.17,2.8-2.27,1.65-.1,2.88.54,3.5,1.37l5.36-3.09c-1.73-2.79-5.12-4.69-9.04-4.69-5.64,0-10.23,3.95-10.23,8.81,0,3.66,2.39,6.59,6.04,8.04,1.99.78,4.02,1.33,4.7,1.54,1.54.48,3.51.99,3.29,2.58-.09.64-.45,1.21-.99,1.56-.78.53-1.88.6-3.23.43-2.85-.37-4.43-2.6-4.77-3.14l-5.7,3.14c1.92,4.2,5.77,6.73,10.88,6.73,6.1,0,11.04-4.13,11.04-9.22-.03-2.4-1.09-4.67-2.9-6.24Z"/>
      <path d="M85.08,7.14c0-3.94-3.84-7.14-8.58-7.14s-8.58,3.2-8.58,7.14c0,1.3.42,2.56,1.18,3.61h0c2.37,3.47,6.98,7.16,7.4,7.48.43-.32,5.03-4,7.39-7.48h0c.76-1.05,1.17-2.31,1.18-3.61Z"/>
      <path d="M83.9,29.59h0c-2.37-3.47-6.98-7.16-7.39-7.48-.43.32-5.03,4-7.4,7.48h0c-.76,1.05-1.17,2.31-1.18,3.6,0,3.95,3.84,7.14,8.58,7.14s8.58-3.2,8.58-7.14c-.01-1.29-.42-2.55-1.18-3.6Z"/>
      <path d="M63.49,11.59c-3.95,0-7.14,3.84-7.14,8.58s3.2,8.58,7.14,8.58c1.3,0,2.56-.42,3.61-1.18h0c3.47-2.37,7.16-6.98,7.48-7.39-.32-.41-4-5.03-7.48-7.4h0c-1.05-.76-2.31-1.17-3.61-1.18Z"/>
      <path d="M85.92,12.77h0c-3.47,2.37-7.16,6.99-7.48,7.4.32.41,4,5.03,7.48,7.39h0c1.05.76,2.31,1.18,3.61,1.18,3.95,0,7.14-3.84,7.14-8.58s-3.2-8.58-7.14-8.58c-1.3.01-2.56.42-3.61,1.18Z"/>
    </g>
  </g>
</svg>