<?xml version="1.0" encoding="UTF-8"?>
<svg id="Layer_2" data-name="Layer 2" xmlns="http://www.w3.org/2000/svg" viewBox="0 0 628.25 94.91">
  <g id="Layer_1-2" data-name="Layer 1">
    <g>
      <g>
        <path d="M202.49,85.31v-.05c0-5.3,3.97-9.65,9.59-9.65,3.46,0,5.54,1.2,7.33,2.9l-2.1,2.43c-1.52-1.39-3.09-2.29-5.25-2.29-3.52,0-6.13,2.9-6.13,6.56v.05c0,3.65,2.58,6.61,6.16,6.61,2.27,0,3.76-.91,5.36-2.4l2.1,2.13c-1.89,2.05-4.1,3.3-7.57,3.3-5.44,0-9.49-4.24-9.49-9.59Z"/>
        <path d="M234.98,85.31v-.05c0-5.22,4.05-9.65,9.78-9.65s9.73,4.34,9.73,9.59v.05c0,5.22-4.05,9.65-9.78,9.65s-9.73-4.34-9.73-9.59ZM251.04,85.31v-.05c0-3.62-2.61-6.61-6.34-6.61s-6.29,2.93-6.29,6.56v.05c0,3.62,2.61,6.61,6.34,6.61s6.29-2.93,6.29-6.56Z"/>
        <path d="M271.78,75.93h3.04l9.99,12.9v-12.9h3.22v18.65h-2.74l-10.29-13.27v13.27h-3.22v-18.65Z"/>
        <path d="M304.9,91.87l1.97-2.34c1.81,1.57,3.57,2.42,5.89,2.42,2.02,0,3.3-.96,3.3-2.35v-.05c0-1.31-.75-2.08-4.21-2.85-3.97-.93-6.21-2.16-6.21-5.57v-.05c0-3.2,2.66-5.41,6.37-5.41,2.74,0,4.85.83,6.77,2.35l-1.76,2.48c-1.71-1.25-3.36-1.92-5.06-1.92-1.92,0-3.04.96-3.04,2.21v.05c0,1.44.85,2.08,4.45,2.93,3.92,1.01,5.97,2.35,5.97,5.46v.05c0,3.52-2.74,5.57-6.66,5.57-2.88,0-5.54-.96-7.78-2.99Z"/>
        <path d="M336.24,86.67v-10.74h3.28v10.61c0,3.49,1.76,5.3,4.72,5.3s4.69-1.73,4.69-5.17v-10.74h3.28v10.58c0,5.57-3.14,8.37-8.02,8.37s-7.94-2.8-7.94-8.21Z"/>
        <path d="M370.04,75.93h3.28v15.67h9.81v2.99h-13.08v-18.65Z"/>
        <path d="M401.8,78.97h-5.94v-3.04h15.16v3.04h-5.94v15.62h-3.28v-15.62Z"/>
        <path d="M432,75.8h3.04l8.21,18.79h-3.46l-1.89-4.5h-8.82l-1.92,4.5h-3.36l8.21-18.79ZM436.69,87.18l-3.22-7.46-3.2,7.46h6.42Z"/>
        <path d="M459.76,75.93h3.04l9.99,12.9v-12.9h3.22v18.65h-2.74l-10.29-13.27v13.27h-3.22v-18.65Z"/>
        <path d="M493.32,85.31v-.05c0-5.3,3.97-9.65,9.59-9.65,3.46,0,5.54,1.2,7.33,2.9l-2.1,2.43c-1.52-1.39-3.09-2.29-5.25-2.29-3.52,0-6.13,2.9-6.13,6.56v.05c0,3.65,2.58,6.61,6.16,6.61,2.27,0,3.76-.91,5.36-2.4l2.11,2.13c-1.89,2.05-4.1,3.3-7.57,3.3-5.44,0-9.49-4.24-9.49-9.59Z"/>
        <path d="M532.38,87.23l-7.41-11.3h3.89l5.2,8.23,5.28-8.23h3.76l-7.41,11.22v7.43h-3.3v-7.36Z"/>
      </g>
      <g>
        <path d="M125.9,55.48h30.31v8.57h-38.88V21.28h8.57v34.2Z"/>
        <path d="M196.75,21.28h8.57v36.86l-6.98,5.9h-29.09l-6.98-5.9V21.28h8.57v32.9l1.51,1.3h22.82l1.58-1.3V21.28Z"/>
        <path d="M257.81,21.21l.22,42.84h-8.57l-26.06-29.81v29.81h-8.57V21.28h8.64l25.92,29.66-.14-29.66,8.57-.07Z"/>
        <path d="M299.35,21.28l22.18,42.77h-9.65l-5.11-9.79h-28.51l-5.11,9.79h-9.65l22.18-42.77h13.68ZM302.38,45.69l-8.28-15.84h-3.17l-8.21,15.84h19.66Z"/>
        <path d="M360.27,52.03l10.66,12.02h-11.45l-10.58-12.02h-13.25v12.02h-8.57V21.28h36l7.06,6.41v18.43l-6.98,5.9h-2.88ZM360.05,43.46l1.51-1.3v-10.66l-1.8-1.66h-24.12v13.61h24.41Z"/>
        <path d="M404.47,21.21l-18.94,42.84h-9.36l18.94-42.84h9.36Z"/>
        <path d="M444.58,52.03l10.66,12.02h-11.45l-10.58-12.02h-13.25v12.02h-8.57V21.28h36l7.06,6.41v18.43l-6.98,5.9h-2.88ZM444.36,43.46l1.51-1.3v-10.66l-1.8-1.66h-24.12v13.61h24.41Z"/>
        <path d="M494.98,21.28l22.18,42.77h-9.65l-5.11-9.79h-28.51l-5.11,9.79h-9.65l22.18-42.77h13.68ZM498,45.69l-8.28-15.84h-3.17l-8.21,15.84h19.66Z"/>
        <path d="M522.84,64.05l-.14-42.77h8.64l.07,42.77h-8.57Z"/>
        <path d="M549.7,55.48h30.31v8.57h-38.88V21.28h8.57v34.2Z"/>
        <path d="M592.25,21.28h36v8.57h-32.69l-1.8,1.66v5.26l1.66,1.73,25.7-.14,7.13,6.55v13.25l-6.98,5.9h-36.07v-8.57h32.9l1.58-1.3v-5.54l-1.87-1.66-25.92.07-6.7-6.77v-12.6l7.06-6.41Z"/>
      </g>
      <path d="M42.63,0C19.09,0,0,19.09,0,42.63s19.09,42.63,42.63,42.63,42.63-19.09,42.63-42.63S66.17,0,42.63,0ZM51.2,16.53c8.56,0,14.71,5.57,15.1,12.55.61,10.84-17.75,15.35-17.75,15.35l-3.07-3.36,4.58-4.58c.53-.53.83-1.25.83-2,0-1.56-1.27-2.83-2.83-2.83l-8.58-1.04c-2.01,0-11.51-6.3-12.93-7.72l-6.96-6.68,31.61.31ZM27.82,69.05c-5.63,0-10.19-4.57-10.2-10.2V18.17l6.86,6.87c1.48,1.48,7.97,10.87,7.97,12.97l.87,8.74c0,.67.27,1.32.74,1.79.99.99,2.6,1,3.59,0l4.76-4.71,25.21,25.21H27.82Z"/>
    </g>
  </g>
</svg>