<?xml version="1.0" encoding="UTF-8"?>
<svg id="Layer_2" data-name="Layer 2" xmlns="http://www.w3.org/2000/svg" viewBox="0 0 628.25 85.26">
  <g id="Layer_1-2" data-name="Layer 1">
    <g>
      <g>
        <path d="M125.9,55.48h30.31v8.57h-38.88V21.28h8.57v34.2Z"/>
        <path d="M196.75,21.28h8.57v36.86l-6.98,5.9h-29.09l-6.98-5.9V21.28h8.57v32.9l1.51,1.3h22.82l1.58-1.3V21.28Z"/>
        <path d="M257.81,21.21l.22,42.84h-8.57l-26.06-29.81v29.81h-8.57V21.28h8.64l25.92,29.66-.14-29.66,8.57-.07Z"/>
        <path d="M299.35,21.28l22.18,42.77h-9.65l-5.11-9.79h-28.51l-5.11,9.79h-9.65l22.18-42.77h13.68ZM302.38,45.69l-8.28-15.84h-3.17l-8.21,15.84h19.66Z"/>
        <path d="M360.27,52.03l10.66,12.02h-11.45l-10.58-12.02h-13.25v12.02h-8.57V21.28h36l7.06,6.41v18.43l-6.98,5.9h-2.88ZM360.05,43.46l1.51-1.3v-10.66l-1.8-1.66h-24.12v13.61h24.41Z"/>
        <path d="M404.47,21.21l-18.94,42.84h-9.36l18.94-42.84h9.36Z"/>
        <path d="M444.58,52.03l10.66,12.02h-11.45l-10.58-12.02h-13.25v12.02h-8.57V21.28h36l7.06,6.41v18.43l-6.98,5.9h-2.88ZM444.36,43.46l1.51-1.3v-10.66l-1.8-1.66h-24.12v13.61h24.41Z"/>
        <path d="M494.98,21.28l22.18,42.77h-9.65l-5.11-9.79h-28.51l-5.11,9.79h-9.65l22.18-42.77h13.68ZM498,45.69l-8.28-15.84h-3.17l-8.21,15.84h19.66Z"/>
        <path d="M522.84,64.05l-.14-42.77h8.64l.07,42.77h-8.57Z"/>
        <path d="M549.7,55.48h30.31v8.57h-38.88V21.28h8.57v34.2Z"/>
        <path d="M592.25,21.28h36v8.57h-32.69l-1.8,1.66v5.26l1.66,1.73,25.7-.14,7.13,6.55v13.25l-6.98,5.9h-36.07v-8.57h32.9l1.58-1.3v-5.54l-1.87-1.66-25.92.07-6.7-6.77v-12.6l7.06-6.41Z"/>
      </g>
      <path d="M42.63,0C19.09,0,0,19.09,0,42.63s19.09,42.63,42.63,42.63,42.63-19.09,42.63-42.63S66.17,0,42.63,0ZM51.2,16.53c8.56,0,14.71,5.57,15.1,12.55.61,10.84-17.75,15.35-17.75,15.35l-3.07-3.36,4.58-4.58c.53-.53.83-1.25.83-2,0-1.56-1.27-2.83-2.83-2.83l-8.58-1.04c-2.01,0-11.51-6.3-12.93-7.72l-6.96-6.68,31.61.31ZM27.82,69.05c-5.63,0-10.19-4.57-10.2-10.2V18.17l6.86,6.87c1.48,1.48,7.97,10.87,7.97,12.97l.87,8.74c0,.67.27,1.32.74,1.79.99.99,2.6,1,3.59,0l4.76-4.71,25.21,25.21H27.82Z"/>
    </g>
  </g>
</svg>