<?xml version="1.0" encoding="UTF-8"?>
<svg id="Layer_2" data-name="Layer 2" xmlns="http://www.w3.org/2000/svg" viewBox="0 0 215.27 54.95">
  <defs>
    <style>
      .cls-1 {
        fill: #75dada;
      }

      .cls-2 {
        fill: #143349;
      }
    </style>
  </defs>
  <g id="Layer_1-2" data-name="Layer 1">
    <g>
      <path class="cls-1" d="M25.4,25.6v-15.01h14.71s4.2,4.22,4.2,4.22v29.8l-18.92-19.02ZM47.54,47.86V13.68l-.76-.75-5.4-5.4-.15-.15-19.02.02v17.64h-.02v1.8h0s0,0,0,0l22.1,22.29,3.23,3.24v-4.52h0Z"/>
      <path class="cls-1" d="M22.15,26.79v15.01H7.44s-4.2-4.22-4.2-4.22V7.77l18.92,19.02ZM0,4.52v34.19l.76.75,5.4,5.4.15.15,19.02-.02v-17.64h.02v-1.8h0s0,0,0,0L3.23,3.24,0,0v4.52h0Z"/>
      <path class="cls-2" d="M89.13,40.06l-23.65-31.39h-1.25v36.14h2.14V13.48l23.65,31.33h1.26V8.67h-2.14v31.39Z"/>
      <path class="cls-2" d="M130.04,32.56c0,5.83-4.71,10.57-10.51,10.57s-10.51-4.74-10.51-10.57,4.71-10.57,10.51-10.57,10.51,4.74,10.51,10.57ZM119.53,19.84c-6.98,0-12.65,5.7-12.65,12.71s5.67,12.72,12.65,12.72,12.65-5.71,12.65-12.72-5.68-12.71-12.65-12.71Z"/>
      <path class="cls-2" d="M148.33,19.85c-2.93,0-5.7,1.37-7.5,3.6v-3.13h-2.14v24.5h2.14v-15.34c0-4.13,3.36-7.48,7.5-7.48.72,0,1.36.1,2.01.32l.8.27v-2.41l-.51-.08c-.71-.12-1.44-.24-2.3-.24"/>
      <path class="cls-2" d="M179.59,32.57c0,5.83-4.71,10.57-10.51,10.57s-10.51-4.74-10.51-10.57,4.71-10.57,10.51-10.57,10.51,4.74,10.51,10.57ZM179.59,25.55c-2.33-3.53-6.25-5.7-10.51-5.7-6.98,0-12.65,5.7-12.65,12.71s5.68,12.72,12.65,12.72c4.26,0,8.18-2.18,10.51-5.7v5.23h2.14V.76h-2.14v24.79Z"/>
      <path class="cls-2" d="M203.16,26.74l12.04-18.07h-2.56l-10.8,16.16-10.8-16.16h-2.56l12.1,18.07-12.1,18.07h2.62l10.74-16.16,10.8,16.16h2.62l-12.11-18.07Z"/>
      <path class="cls-2" d="M100.49,8.67h-2.1v5.98h2.1v-5.98Z"/>
      <path class="cls-2" d="M98.37,48.85c0,2.17-1.76,3.94-3.92,3.94-.65,0-1.27-.16-1.85-.48l-.89-.48v2.46l.37.16c.76.33,1.55.49,2.37.49,3.08,0,5.66-2.37,6.02-5.39h.04v-29.24h-2.14v28.53h0Z"/>
    </g>
  </g>
</svg>