<?xml version="1.0" encoding="UTF-8"?>
<svg id="Layer_2" data-name="Layer 2" xmlns="http://www.w3.org/2000/svg" viewBox="0 0 269.3 65.53">
  <defs>
    <style>
      .cls-1 {
        fill: #ff5f06;
      }
    </style>
  </defs>
  <g id="Layer_1-2" data-name="Layer 1">
    <g>
      <g>
        <path d="M24.65.18h-6.6c1.22,2.01,1.82,4.29,1.82,6.74,0,2.71-.78,5.25-2.26,7.35h7.29c5.12,0,9.29,4.2,9.29,9.36s-4.17,9.36-9.29,9.36h-10.94v-15.05c-2,1.31-4.43,2.1-7.03,2.1s-4.86-.7-6.86-2.01v47.51c7.73,0,13.98-6.3,13.98-14.09v-4.46h11.02c12.93,0,23.44-10.67,23.26-23.8C48.01,10.41,37.41.18,24.65.18Z"/>
        <path class="cls-1" d="M6.86,13.82c3.79,0,6.86-3.09,6.86-6.91S10.65,0,6.86,0,0,3.09,0,6.91s3.07,6.91,6.86,6.91Z"/>
      </g>
      <g>
        <path d="M72.64,28.94V8.32h9.59c2.48,0,4.48.56,5.91,1.77,1.44,1.13,2.16,2.82,2.16,5.07s-.72,3.95-2.16,5.07c-1.44,1.13-3.36,1.77-5.91,1.77h-4.79v6.93h-4.79ZM77.43,12.27v5.72h4.71c2.24,0,3.44-.97,3.44-2.9s-1.12-2.9-3.44-2.9h-4.71v.08Z"/>
        <path d="M89.42,28.94l8.39-20.7h4.47l8.31,20.7h-5.19l-1.84-4.99h-7.19l-1.84,4.99h-5.11ZM99.17,16.54l-1.2,3.38h4.16l-1.2-3.38-.32-.81c-.16-.4-.4-.97-.56-1.69,0,.16-.08.32-.16.56-.08.24-.16.48-.24.64-.08.16-.08.32-.16.48l-.32.81Z"/>
        <path d="M112.83,28.94V8.32h4.71v20.62h-4.71Z"/>
        <path d="M122.1,28.94V8.32h6.63c3.44,0,6.15.89,8.31,2.66,2.16,1.77,3.12,4.35,3.12,7.73s-1.04,5.96-3.12,7.73c-2.08,1.77-4.87,2.66-8.31,2.66h-6.63v-.16ZM126.9,24.67h2.32c1.92,0,3.52-.48,4.56-1.53,1.12-1.05,1.68-2.5,1.68-4.43s-.56-3.38-1.68-4.43c-1.12-1.05-2.64-1.53-4.56-1.53h-2.32v11.92Z"/>
        <path d="M158.86,24.51v4.43h-15.02V8.32h4.71v16.27h10.31v-.08Z"/>
        <path d="M168.77,21.13v7.81h-4.71v-7.89l-6.79-12.81h5.35l3.28,6.6.24.48c.24.56.32.97.4,1.05l.4-1.05.24-.48,3.28-6.6h5.27l-6.95,12.89Z"/>
        <path class="cls-1" d="M72.64,56.89v-20.7h4.71v20.7h-4.71Z"/>
        <path class="cls-1" d="M81.99,56.89v-20.7h4.71l7.51,11.76c0,.08.16.24.4.64.24.32.4.64.48.97v-13.37h4.64v20.7h-4.71l-7.59-11.84c0-.08-.16-.24-.4-.64-.24-.4-.4-.72-.48-.97v13.45h-4.56Z"/>
        <path class="cls-1" d="M102.77,40.38v-4.19h16.86v4.19h-6.07v16.51h-4.72v-16.51h-6.07Z"/>
        <path class="cls-1" d="M122.66,56.89v-20.7h14.94v4.19h-10.23v3.79h9.43v4.11h-9.43v4.43h10.31v4.19h-15.02Z"/>
        <path class="cls-1" d="M153.27,56.89l-4.55-8.13h-2.56v8.13h-4.71v-20.7h8.95c2.48,0,4.4.56,5.67,1.61,1.36,1.05,2,2.58,2,4.51,0,1.53-.4,2.74-1.12,3.62-.72.89-1.84,1.77-3.28,2.34l4.79,8.54h-5.19v.08ZM146.16,40.13v4.75h4.64c1.76,0,2.64-.81,2.64-2.34,0-1.61-.88-2.34-2.64-2.34h-4.64v-.08Z"/>
        <path class="cls-1" d="M160.22,56.89l8.39-20.7h4.48l8.39,20.7h-5.19l-1.84-4.99h-7.19l-1.84,4.99h-5.19ZM169.97,44.4l-1.2,3.38h4.16l-1.2-3.38-.32-.81c-.16-.4-.4-.97-.56-1.69,0,.16-.08.32-.16.56-.08.24-.16.48-.24.64-.08.16-.08.32-.16.48l-.32.81Z"/>
        <path class="cls-1" d="M198.58,48.91l3.84,2.74c-1.2,1.93-2.56,3.38-4,4.27-1.44.89-3.28,1.37-5.43,1.37-3.12,0-5.67-.97-7.67-2.98-2-2.01-2.96-4.59-2.96-7.81s1.04-5.8,3.04-7.73c2-1.93,4.64-2.98,7.75-2.98,2.16,0,4.08.48,5.67,1.53,1.6.97,2.8,2.34,3.52,3.95l-3.99,2.74c-1.2-2.5-3.04-3.79-5.36-3.79-1.68,0-3.04.56-4.15,1.77-1.12,1.13-1.68,2.66-1.68,4.59s.56,3.38,1.68,4.51c1.12,1.21,2.56,1.77,4.24,1.77,1.28,0,2.32-.32,3.2-.97.8-.64,1.6-1.61,2.32-2.98Z"/>
        <path class="cls-1" d="M204.41,40.38v-4.19h16.86v4.19h-6.07v16.51h-4.71v-16.51h-6.07Z"/>
        <path class="cls-1" d="M224.39,56.89v-20.7h4.71v20.7h-4.71Z"/>
        <path class="cls-1" d="M239.49,56.89l-7.67-20.7h5.27l4,11.6.24.97c.24.89.4,1.45.48,1.77l.48-1.77.24-.97,4-11.6h5.27l-7.67,20.7h-4.63Z"/>
        <path class="cls-1" d="M254.28,56.89v-20.7h14.94v4.19h-10.23v3.79h9.43v4.11h-9.43v4.43h10.31v4.19h-15.02Z"/>
      </g>
    </g>
  </g>
</svg>