<?xml version="1.0" encoding="UTF-8"?>
<svg id="Layer_2" data-name="Layer 2" xmlns="http://www.w3.org/2000/svg" xmlns:xlink="http://www.w3.org/1999/xlink" viewBox="0 0 215.06 56.15">
  <defs>
    <style>
      .cls-1 {
        fill: url(#linear-gradient-8);
      }

      .cls-2 {
        fill: url(#linear-gradient-7);
      }

      .cls-3 {
        fill: url(#linear-gradient-5);
      }

      .cls-4 {
        fill: url(#linear-gradient-6);
      }

      .cls-5 {
        fill: url(#linear-gradient-9);
      }

      .cls-6 {
        fill: url(#linear-gradient-4);
      }

      .cls-7 {
        fill: url(#linear-gradient-3);
      }

      .cls-8 {
        fill: url(#linear-gradient-2);
      }

      .cls-9 {
        fill: #231f20;
      }

      .cls-10 {
        fill: url(#linear-gradient);
      }
    </style>
    <linearGradient id="linear-gradient" x1="15.18" y1="52.38" x2="207.78" y2="79.8" gradientUnits="userSpaceOnUse">
      <stop offset="0" stop-color="#7ec594"/>
      <stop offset=".5" stop-color="#b2d294"/>
      <stop offset="1" stop-color="#925ba2"/>
    </linearGradient>
    <linearGradient id="linear-gradient-2" x1="20.33" y1="16.24" x2="212.92" y2="43.66" xlink:href="#linear-gradient"/>
    <linearGradient id="linear-gradient-3" x1="24.19" y1="-10.87" x2="216.78" y2="16.55" xlink:href="#linear-gradient"/>
    <linearGradient id="linear-gradient-4" x1="21.37" y1="8.95" x2="213.96" y2="36.37" xlink:href="#linear-gradient"/>
    <linearGradient id="linear-gradient-5" x1="25.01" y1="-16.64" x2="217.6" y2="10.78" xlink:href="#linear-gradient"/>
    <linearGradient id="linear-gradient-6" x1="25.07" y1="-17.09" x2="217.67" y2="10.33" xlink:href="#linear-gradient"/>
    <linearGradient id="linear-gradient-7" x1="17.67" y1="34.89" x2="210.27" y2="62.31" xlink:href="#linear-gradient"/>
    <linearGradient id="linear-gradient-8" x1="22.93" y1="-2.02" x2="215.52" y2="25.4" xlink:href="#linear-gradient"/>
    <linearGradient id="linear-gradient-9" x1="18.19" y1="31.28" x2="210.78" y2="58.7" xlink:href="#linear-gradient"/>
  </defs>
  <g id="Layer_1-2" data-name="Layer 1">
    <g>
      <g>
        <path class="cls-9" d="M35.51,54.33c0-.08.01-.15.04-.21.03-.07.07-.12.12-.17.05-.05.11-.09.17-.12.07-.03.14-.04.21-.04s.15.01.21.04c.07.03.12.07.17.12s.09.11.12.17c.03.07.04.14.04.21s-.01.15-.04.21c-.03.07-.07.12-.12.17-.05.05-.11.09-.17.12-.07.03-.14.04-.21.04s-.15-.01-.21-.04c-.07-.03-.12-.07-.17-.12s-.09-.11-.12-.17c-.03-.07-.04-.14-.04-.21Z"/>
        <path class="cls-9" d="M41.58,54.36c.07,0,.13.02.16.05s.05.09.05.17-.02.14-.05.17c-.03.03-.08.05-.16.05h-.21c-.07,0-.13,0-.19-.02-.06-.02-.11-.04-.16-.08-.05-.03-.09-.08-.13-.13s-.06-.11-.08-.18c-.17.15-.36.27-.56.35s-.43.13-.67.13c-.16,0-.31-.02-.45-.06s-.25-.1-.35-.18c-.1-.08-.18-.18-.23-.3-.06-.12-.08-.25-.08-.4,0-.18.04-.33.11-.46s.16-.23.28-.31c.12-.08.26-.14.42-.17.16-.04.33-.05.5-.05s.34.01.51.04c.16.03.32.07.48.12v-.27c0-.21-.05-.36-.15-.46-.1-.1-.27-.15-.52-.15-.17,0-.35.02-.53.07-.18.05-.33.12-.47.21-.05.04-.1.05-.15.04-.05-.01-.1-.05-.15-.12-.05-.07-.07-.13-.06-.18,0-.05.04-.1.09-.13.08-.06.18-.12.28-.16.1-.05.21-.08.32-.11.11-.03.22-.05.33-.06.11-.01.22-.02.33-.02.39,0,.67.09.86.27s.29.45.29.81v1.29c0,.17.07.26.21.26h.11ZM40.77,53.53c-.15-.05-.31-.09-.48-.11-.17-.02-.34-.04-.5-.04-.12,0-.22,0-.32.03-.1.02-.18.05-.25.09-.07.04-.13.1-.17.16s-.06.15-.06.25c0,.16.05.28.16.37.11.09.26.13.46.13.23,0,.44-.05.63-.14.19-.1.37-.23.53-.39v-.35Z"/>
        <path class="cls-9" d="M46.91,54.36c.07,0,.13.02.16.05.03.03.05.09.05.17s-.02.14-.05.17c-.03.03-.08.05-.16.05h-.51c-.07,0-.13-.02-.16-.05-.03-.03-.05-.09-.05-.17v-.26c-.13.17-.29.31-.47.41-.18.1-.37.14-.59.14-.2,0-.39-.03-.56-.1-.17-.07-.32-.17-.44-.29-.12-.13-.22-.28-.29-.47s-.11-.39-.11-.62.04-.44.11-.62.17-.34.29-.47c.12-.13.27-.22.44-.29.17-.07.36-.1.56-.1.22,0,.41.04.58.13.17.09.32.21.45.37v-1.41h-.65c-.07,0-.13-.02-.16-.05-.03-.03-.05-.09-.05-.17s.02-.14.05-.17c.03-.03.08-.05.16-.05h.93c.07,0,.13.02.16.05.03.03.05.09.05.17v3.58h.26ZM46.16,53.39c0-.16-.02-.3-.07-.43s-.12-.23-.21-.32c-.09-.09-.19-.15-.32-.2-.12-.05-.25-.07-.4-.07s-.28.03-.39.07c-.11.05-.21.12-.29.21s-.14.2-.18.32c-.04.12-.06.26-.06.4s.02.28.06.4c.04.12.1.23.18.32s.17.16.29.21c.11.05.24.07.39.07s.27-.02.4-.07c.12-.05.23-.11.32-.2.09-.09.16-.19.21-.32s.07-.27.07-.43Z"/>
        <path class="cls-9" d="M51.34,51.82c.07,0,.13.02.16.05.03.03.05.09.05.17v2.97c0,.19-.02.35-.06.49-.04.14-.1.26-.19.36s-.19.17-.33.22-.29.07-.48.07c-.09,0-.19,0-.29-.03-.1-.02-.2-.04-.3-.08s-.2-.07-.29-.11c-.09-.04-.18-.09-.26-.14-.05-.03-.09-.08-.1-.12-.01-.05,0-.11.04-.19.04-.08.09-.12.14-.14.05-.02.1,0,.15.02.14.09.29.17.45.23.16.06.31.09.47.09.11,0,.2-.01.27-.04s.13-.07.18-.13.08-.13.1-.22.03-.19.03-.31v-2.71h-1.37c-.07,0-.13-.02-.16-.05-.03-.03-.05-.09-.05-.17s.02-.14.05-.17c.03-.03.08-.05.16-.05h1.65ZM51.55,51.03c0,.08-.02.13-.06.16-.04.03-.12.05-.25.05s-.2-.02-.25-.05c-.04-.03-.06-.09-.06-.16v-.42c0-.08.02-.13.06-.16.04-.03.12-.05.25-.05s.2.02.25.05c.04.03.06.09.06.16v.42Z"/>
        <path class="cls-9" d="M55.36,54.33c0-.08.01-.15.04-.21.03-.07.07-.12.12-.17.05-.05.11-.09.17-.12.07-.03.14-.04.21-.04s.15.01.21.04c.07.03.12.07.17.12.05.05.09.11.12.17.03.07.04.14.04.21s-.01.15-.04.21c-.03.07-.07.12-.12.17s-.11.09-.17.12c-.07.03-.14.04-.21.04s-.15-.01-.21-.04c-.07-.03-.12-.07-.17-.12s-.09-.11-.12-.17-.04-.14-.04-.21Z"/>
        <path class="cls-9" d="M65.75,52.08v-.97c0-.08.02-.13.05-.16.04-.03.1-.05.19-.05s.15.02.19.05c.04.03.05.09.05.16v.97h1.33c.07,0,.13.02.16.05.03.03.05.09.05.17s-.02.14-.05.17c-.03.03-.08.05-.16.05h-1.33v1.18c0,.12,0,.22.03.31.02.09.05.16.1.22.04.06.1.1.18.13.07.03.16.04.27.04.15,0,.31-.03.47-.09.16-.06.31-.14.45-.23.05-.03.1-.04.15-.02.05.02.1.06.14.14.04.08.05.14.04.19-.01.05-.05.09-.1.12-.08.05-.17.1-.26.14s-.19.08-.29.11c-.1.03-.2.06-.3.08-.1.02-.2.03-.29.03-.19,0-.35-.03-.48-.07-.13-.05-.24-.12-.33-.22-.09-.1-.15-.21-.19-.36-.04-.14-.06-.31-.06-.49v-1.22h-.66c-.07,0-.13-.02-.16-.05-.03-.03-.05-.09-.05-.17s.02-.14.05-.17c.03-.03.08-.05.16-.05h.66Z"/>
        <path class="cls-9" d="M70.19,53.31c0-.23.04-.44.12-.63.08-.19.19-.36.33-.49.14-.14.31-.25.51-.32s.41-.12.64-.12.44.04.64.12.36.19.51.32c.14.14.25.3.33.49.08.19.12.4.12.63s-.04.44-.12.63c-.08.19-.19.36-.33.49-.14.14-.31.25-.51.32s-.41.12-.64.12-.44-.04-.64-.12-.36-.19-.51-.32c-.14-.14-.25-.3-.33-.49-.08-.19-.12-.4-.12-.63ZM70.7,53.31c0,.16.03.3.08.44.05.13.13.25.22.34.09.1.21.17.34.23s.28.08.44.08.31-.03.44-.08.25-.13.34-.23c.09-.1.17-.21.22-.34.05-.13.08-.28.08-.44s-.03-.3-.08-.44c-.05-.13-.13-.25-.22-.34-.09-.1-.21-.17-.34-.23-.13-.05-.28-.08-.44-.08s-.31.03-.44.08c-.13.05-.25.13-.34.23-.09.1-.17.21-.22.34-.05.13-.08.28-.08.44Z"/>
        <path class="cls-9" d="M81.05,51h-.33c-.07,0-.13-.02-.16-.05-.03-.03-.05-.09-.05-.17s.02-.14.05-.17c.03-.03.08-.05.16-.05h.61c.07,0,.13.02.16.05s.05.09.05.17v1.5c.13-.17.28-.3.45-.39s.36-.14.58-.14c.2,0,.39.04.56.11.17.07.32.17.44.31.12.13.22.3.29.49.07.19.11.41.11.66s-.04.46-.11.66c-.07.19-.17.36-.29.49-.12.13-.27.24-.44.31-.17.07-.36.11-.56.11-.22,0-.41-.05-.59-.14-.18-.1-.33-.23-.47-.41v.26c0,.08-.02.14-.05.17-.03.03-.08.05-.16.05h-.51c-.07,0-.13-.02-.16-.05-.03-.03-.05-.09-.05-.17s.02-.14.05-.17.08-.05.16-.05h.26v-3.36ZM81.53,53.31c0,.17.02.33.07.46s.12.25.21.34c.09.09.19.16.32.21.12.05.25.07.4.07s.28-.03.39-.08c.11-.05.21-.13.29-.22.08-.1.14-.21.18-.34.04-.13.06-.28.06-.44s-.02-.3-.06-.44c-.04-.13-.1-.25-.18-.34-.08-.1-.17-.17-.29-.22-.11-.05-.24-.08-.39-.08s-.27.02-.4.07c-.12.05-.23.12-.32.21-.09.09-.16.21-.21.34s-.07.29-.07.46Z"/>
        <path class="cls-9" d="M86.67,53.43c.02.33.11.57.27.73.16.16.39.24.7.24.22,0,.43-.03.63-.07.2-.05.38-.12.53-.2.07-.04.13-.04.17,0,.05.03.08.08.11.15.03.07.04.13.02.19-.02.06-.06.1-.13.14-.08.04-.18.08-.28.11-.1.03-.21.06-.33.09-.12.02-.23.04-.36.06-.12.01-.25.02-.37.02-.24,0-.45-.04-.63-.11s-.34-.18-.46-.31c-.12-.13-.22-.3-.29-.49-.07-.19-.1-.41-.1-.65s.04-.45.11-.64c.08-.19.18-.36.32-.49s.3-.24.49-.32c.19-.07.4-.11.62-.11.24,0,.45.04.63.11.18.07.34.18.46.31s.22.29.29.47c.07.18.11.38.12.59,0,.07-.02.13-.05.16-.03.03-.08.05-.16.05h-2.34ZM87.7,52.21c-.27,0-.49.07-.66.2-.17.13-.28.32-.34.56h1.98c-.05-.24-.15-.43-.31-.56-.16-.13-.38-.2-.67-.2Z"/>
        <path class="cls-9" d="M97.46,52.26h-.41c-.07,0-.13-.02-.16-.05-.03-.03-.05-.09-.05-.17s.02-.14.05-.17c.03-.03.08-.05.16-.05h.66c.07,0,.13.02.16.05.03.03.05.09.05.17v.65c.08-.14.17-.27.27-.39.1-.12.21-.22.33-.3.12-.08.24-.15.36-.19s.25-.07.37-.07c.17,0,.33.04.47.13.06.04.1.08.12.14.02.05.01.12-.02.2-.03.08-.07.13-.11.16-.05.03-.1.03-.16,0-.11-.06-.22-.09-.34-.09-.1,0-.2.02-.3.05-.1.04-.2.09-.29.15s-.18.14-.26.23c-.08.09-.15.19-.21.3s-.11.22-.14.35c-.03.12-.05.25-.05.38v.63h1.09c.07,0,.13.02.16.05.03.03.05.09.05.17s-.02.14-.05.17c-.03.03-.08.05-.16.05h-2.08c-.07,0-.13-.02-.16-.05-.03-.03-.05-.09-.05-.17s.02-.14.05-.17.08-.05.16-.05h.51v-2.11Z"/>
        <path class="cls-9" d="M102.55,53.43c.02.33.11.57.27.73.16.16.39.24.7.24.22,0,.43-.03.63-.07.2-.05.38-.12.53-.2.07-.04.13-.04.17,0,.05.03.08.08.11.15.03.07.04.13.02.19-.02.06-.06.1-.13.14-.08.04-.18.08-.28.11-.1.03-.21.06-.33.09-.12.02-.23.04-.36.06-.12.01-.25.02-.37.02-.24,0-.45-.04-.63-.11s-.34-.18-.46-.31c-.12-.13-.22-.3-.29-.49-.07-.19-.1-.41-.1-.65s.04-.45.11-.64c.08-.19.18-.36.32-.49s.3-.24.49-.32c.19-.07.4-.11.62-.11.24,0,.45.04.63.11.18.07.34.18.46.31s.22.29.29.47.11.38.12.59c0,.07-.02.13-.05.16-.03.03-.08.05-.16.05h-2.34ZM103.59,52.21c-.27,0-.49.07-.66.2-.17.13-.28.32-.34.56h1.98c-.05-.24-.15-.43-.31-.56-.16-.13-.38-.2-.67-.2Z"/>
        <path class="cls-9" d="M108.31,52.08v-.4c0-.18.03-.33.08-.48.05-.14.12-.26.22-.36s.22-.17.36-.22.3-.08.48-.08c.15,0,.3.02.45.05s.28.07.41.12c.06.02.1.06.13.11s.03.11.01.19c-.02.09-.05.14-.09.17-.04.02-.09.02-.15,0-.13-.05-.25-.09-.38-.12s-.26-.04-.38-.04c-.23,0-.39.06-.5.18-.1.12-.16.3-.16.52v.36h1.12c.07,0,.13.02.16.05.03.03.05.09.05.17s-.02.14-.05.17c-.03.03-.08.05-.16.05h-1.12v1.85h1.12c.07,0,.13.02.16.05.03.03.05.09.05.17s-.02.14-.05.17c-.03.03-.08.05-.16.05h-2.24c-.07,0-.13-.02-.16-.05-.03-.03-.05-.09-.05-.17s.02-.14.05-.17.08-.05.16-.05h.64v-1.85h-.64c-.07,0-.13-.02-.16-.05s-.05-.09-.05-.17.02-.14.05-.17c.03-.03.08-.05.16-.05h.64Z"/>
        <path class="cls-9" d="M113.98,52.26h-.82c-.07,0-.13-.02-.16-.05-.03-.03-.05-.09-.05-.17s.02-.14.05-.17c.03-.03.08-.05.16-.05h1.1c.07,0,.13.02.16.05.03.03.05.09.05.17v2.33h1.04c.07,0,.13.02.16.05s.05.09.05.17-.02.14-.05.17c-.03.03-.08.05-.16.05h-2.53c-.07,0-.13-.02-.16-.05-.03-.03-.05-.09-.05-.17s.02-.14.05-.17.08-.05.16-.05h1.01v-2.11ZM114.47,51.03c0,.08-.02.13-.06.16-.04.03-.12.05-.25.05s-.2-.02-.25-.05c-.04-.03-.06-.09-.06-.16v-.42c0-.08.02-.13.06-.16.04-.03.12-.05.25-.05s.2.02.25.05c.04.03.06.09.06.16v.42Z"/>
        <path class="cls-9" d="M118.24,52.26h-.33c-.07,0-.13-.02-.16-.05-.03-.03-.05-.09-.05-.17s.02-.14.05-.17c.03-.03.08-.05.16-.05h.58c.07,0,.13.02.16.05.03.03.05.09.05.17v.39c.14-.22.31-.39.5-.51.19-.12.4-.17.62-.17.15,0,.28.03.4.07.12.05.22.12.3.21.08.09.15.2.19.33.04.13.07.28.07.44v1.56h.26c.07,0,.13.02.16.05s.05.09.05.17-.02.14-.05.17c-.03.03-.08.05-.16.05h-1.05c-.07,0-.13-.02-.16-.05-.03-.03-.05-.09-.05-.17s.02-.14.05-.17c.03-.03.08-.05.16-.05h.3v-1.52c0-.09-.01-.18-.03-.25s-.05-.14-.1-.2c-.04-.06-.1-.1-.16-.13-.07-.03-.14-.05-.23-.05-.14,0-.27.03-.39.09-.13.06-.24.14-.33.25-.09.11-.17.24-.23.38-.06.15-.08.31-.08.49v.92h.3c.07,0,.13.02.16.05s.05.09.05.17-.02.14-.05.17c-.03.03-.08.05-.16.05h-1.05c-.07,0-.13-.02-.16-.05-.03-.03-.05-.09-.05-.17s.02-.14.05-.17.08-.05.16-.05h.26v-2.11Z"/>
        <path class="cls-9" d="M123.73,53.43c.02.33.11.57.27.73.16.16.39.24.7.24.22,0,.43-.03.63-.07.2-.05.38-.12.53-.2.07-.04.13-.04.17,0,.05.03.08.08.11.15.03.07.04.13.02.19-.02.06-.06.1-.13.14-.08.04-.18.08-.28.11-.1.03-.21.06-.33.09-.12.02-.23.04-.36.06-.12.01-.25.02-.37.02-.24,0-.45-.04-.63-.11s-.34-.18-.46-.31c-.12-.13-.22-.3-.29-.49-.07-.19-.1-.41-.1-.65s.04-.45.11-.64c.08-.19.18-.36.32-.49s.3-.24.49-.32c.19-.07.4-.11.62-.11.24,0,.45.04.63.11.18.07.34.18.46.31s.22.29.29.47.11.38.12.59c0,.07-.02.13-.05.16-.03.03-.08.05-.16.05h-2.34ZM124.76,52.21c-.27,0-.49.07-.66.2-.17.13-.28.32-.34.56h1.98c-.05-.24-.15-.43-.31-.56-.16-.13-.38-.2-.67-.2Z"/>
        <path class="cls-9" d="M131.63,54.36c.07,0,.13.02.16.05.03.03.05.09.05.17s-.02.14-.05.17c-.03.03-.08.05-.16.05h-.51c-.07,0-.13-.02-.16-.05-.03-.03-.05-.09-.05-.17v-.26c-.13.17-.29.31-.47.41-.18.1-.37.14-.59.14-.2,0-.39-.03-.56-.1-.17-.07-.32-.17-.44-.29-.12-.13-.22-.28-.29-.47-.07-.18-.11-.39-.11-.62s.04-.44.11-.62c.07-.18.17-.34.29-.47.12-.13.27-.22.44-.29.17-.07.36-.1.56-.1.22,0,.41.04.58.13.17.09.32.21.45.37v-1.41h-.65c-.07,0-.13-.02-.16-.05-.03-.03-.05-.09-.05-.17s.02-.14.05-.17c.03-.03.08-.05.16-.05h.93c.07,0,.13.02.16.05s.05.09.05.17v3.58h.26ZM130.88,53.39c0-.16-.03-.3-.07-.43-.05-.13-.12-.23-.21-.32-.09-.09-.19-.15-.32-.2s-.25-.07-.4-.07-.28.03-.39.07c-.11.05-.21.12-.29.21s-.14.2-.18.32c-.04.12-.06.26-.06.4s.02.28.06.4c.04.12.1.23.18.32s.17.16.29.21c.11.05.24.07.39.07s.27-.02.4-.07.23-.11.32-.2c.09-.09.16-.19.21-.32.05-.13.07-.27.07-.43Z"/>
        <path class="cls-9" d="M134.95,55.62s-.05.08-.09.1c-.04.02-.08.03-.12.03-.03,0-.06,0-.08-.01s-.05-.02-.07-.04-.03-.04-.04-.07,0-.06,0-.09l.34-1.56c.02-.09.08-.13.17-.13h.63c.05,0,.09.02.11.06s.01.09-.02.14l-.81,1.56Z"/>
        <path class="cls-9" d="M144.58,52.26h-.27c-.07,0-.13-.02-.16-.05-.03-.03-.05-.09-.05-.17s.02-.14.05-.17c.03-.03.08-.05.16-.05h.51c.07,0,.13.02.16.05.03.03.05.09.05.17v.26c.13-.17.29-.31.47-.41s.37-.14.59-.14c.2,0,.39.03.56.1.17.07.32.17.44.29.12.13.22.28.29.47s.11.39.11.62-.04.44-.11.62-.17.34-.29.47c-.12.13-.27.22-.44.29s-.36.1-.56.1c-.22,0-.41-.04-.58-.13-.17-.09-.32-.21-.45-.37v1.43h.72c.07,0,.13.02.16.05s.05.09.05.17-.02.14-.05.17-.08.05-.16.05h-1.56c-.07,0-.13-.02-.16-.05-.03-.03-.05-.09-.05-.17s.02-.14.05-.17c.03-.03.08-.05.16-.05h.36v-3.38ZM145.06,53.23c0,.16.03.3.07.43s.12.23.21.32c.09.09.19.15.32.2.12.04.25.07.4.07s.28-.03.39-.07c.11-.05.21-.12.29-.21s.14-.2.18-.32c.04-.12.06-.26.06-.4s-.02-.28-.06-.4c-.04-.12-.1-.23-.18-.32s-.17-.16-.29-.21c-.11-.05-.24-.07-.39-.07s-.27.02-.4.07-.23.11-.32.2c-.09.09-.16.19-.21.32s-.07.27-.07.43Z"/>
        <path class="cls-9" d="M149.61,53.31c0-.23.04-.44.12-.63.08-.19.19-.36.33-.49.14-.14.31-.25.51-.32s.41-.12.64-.12.44.04.64.12.36.19.51.32c.14.14.25.3.33.49s.12.4.12.63-.04.44-.12.63-.19.36-.33.49c-.14.14-.31.25-.51.32s-.41.12-.64.12-.44-.04-.64-.12-.36-.19-.51-.32c-.14-.14-.25-.3-.33-.49-.08-.19-.12-.4-.12-.63ZM150.12,53.31c0,.16.03.3.08.44.05.13.13.25.22.34.09.1.21.17.34.23.13.05.28.08.44.08s.31-.03.44-.08c.13-.05.25-.13.34-.23.09-.1.17-.21.22-.34.05-.13.08-.28.08-.44s-.03-.3-.08-.44c-.05-.13-.13-.25-.22-.34-.09-.1-.21-.17-.34-.23-.13-.05-.28-.08-.44-.08s-.31.03-.44.08c-.13.05-.25.13-.34.23-.09.1-.17.21-.22.34-.05.13-.08.28-.08.44Z"/>
        <path class="cls-9" d="M156.3,51h-.88c-.07,0-.13-.02-.16-.05-.03-.03-.05-.09-.05-.17s.02-.14.05-.17c.03-.03.08-.05.16-.05h1.16c.07,0,.13.02.16.05s.05.09.05.17v3.58h1.04c.07,0,.13.02.16.05s.05.09.05.17-.02.14-.05.17c-.03.03-.08.05-.16.05h-2.53c-.07,0-.13-.02-.16-.05-.03-.03-.05-.09-.05-.17s.02-.14.05-.17c.03-.03.08-.05.16-.05h1.01v-3.36Z"/>
        <path class="cls-9" d="M161.63,52.26h-.82c-.07,0-.13-.02-.16-.05-.03-.03-.05-.09-.05-.17s.02-.14.05-.17c.03-.03.08-.05.16-.05h1.1c.07,0,.13.02.16.05.03.03.05.09.05.17v2.33h1.04c.07,0,.13.02.16.05.03.03.05.09.05.17s-.02.14-.05.17c-.03.03-.08.05-.16.05h-2.53c-.07,0-.13-.02-.16-.05-.03-.03-.05-.09-.05-.17s.02-.14.05-.17c.03-.03.08-.05.16-.05h1.01v-2.11ZM162.12,51.03c0,.08-.02.13-.06.16s-.12.05-.25.05-.2-.02-.25-.05-.06-.09-.06-.16v-.42c0-.08.02-.13.06-.16s.12-.05.25-.05.2.02.25.05.06.09.06.16v.42Z"/>
        <path class="cls-9" d="M166.17,54.67c0,.08-.02.13-.05.16s-.1.05-.19.05-.15-.02-.19-.05-.05-.09-.05-.16v-.78c0-.08.02-.13.05-.16.04-.03.1-.05.19-.05.05,0,.08.01.11.03.03.02.05.06.06.1.08.21.21.36.39.45s.42.14.72.14c.26,0,.45-.05.58-.14s.19-.21.19-.36c0-.08-.03-.14-.07-.19-.05-.05-.12-.08-.2-.11-.09-.03-.2-.06-.33-.07-.13-.01-.26-.03-.39-.04-.14-.02-.28-.03-.41-.06-.14-.02-.26-.06-.38-.1-.07-.03-.14-.06-.2-.1-.06-.04-.11-.09-.16-.15s-.08-.12-.1-.19c-.03-.07-.04-.16-.04-.25,0-.14.03-.27.09-.38.06-.11.14-.2.24-.28.1-.08.22-.13.36-.17.14-.04.29-.06.45-.06.22,0,.41.03.58.1s.32.15.44.26v-.15c0-.08.02-.13.05-.16.04-.03.1-.05.19-.05s.15.02.19.05c.04.03.05.09.05.16v.61c0,.08-.02.13-.05.16s-.1.05-.19.05c-.07,0-.13-.03-.16-.08-.05-.09-.11-.17-.18-.23-.07-.06-.15-.11-.24-.15-.09-.04-.19-.06-.3-.08-.11-.01-.23-.02-.35-.02-.21,0-.37.04-.49.11s-.18.18-.18.31c0,.07.02.13.07.17s.11.08.19.1c.09.03.2.05.32.07s.25.03.38.04c.13.01.27.03.4.05.14.02.26.05.38.1.08.03.15.07.22.11.07.04.12.09.17.15.05.06.09.13.11.21.03.08.04.17.04.27,0,.14-.03.28-.08.39-.05.12-.14.22-.24.31-.11.09-.24.15-.39.2-.16.05-.33.07-.54.07-.23,0-.44-.03-.62-.1-.18-.06-.33-.16-.46-.29v.18Z"/>
        <path class="cls-9" d="M171.15,51h-.3c-.07,0-.13-.02-.16-.05s-.05-.09-.05-.17.02-.14.05-.17.08-.05.16-.05h.58c.07,0,.13.02.16.05.03.03.05.09.05.17v1.61c.14-.21.3-.37.49-.48s.38-.17.6-.17c.15,0,.28.03.4.07s.22.12.3.21c.08.09.15.2.19.33s.07.28.07.44v1.56h.26c.07,0,.13.02.16.05.03.03.05.09.05.17s-.02.14-.05.17c-.03.03-.08.05-.16.05h-1.05c-.07,0-.13-.02-.16-.05-.03-.03-.05-.09-.05-.17s.02-.14.05-.17.08-.05.16-.05h.3v-1.52c0-.09-.01-.18-.03-.25s-.05-.14-.1-.2c-.04-.06-.1-.1-.16-.13-.07-.03-.14-.05-.23-.05-.14,0-.27.03-.39.09-.13.06-.23.14-.33.25s-.17.24-.23.38c-.06.15-.08.31-.08.49v.92h.3c.07,0,.13.02.16.05.03.03.05.09.05.17s-.02.14-.05.17c-.03.03-.08.05-.16.05h-1.05c-.07,0-.13-.02-.16-.05-.03-.03-.05-.09-.05-.17s.02-.14.05-.17.08-.05.16-.05h.26v-3.36Z"/>
        <path class="cls-9" d="M176.68,53.43c.02.33.11.57.27.73s.39.24.7.24c.22,0,.43-.03.63-.07.2-.05.38-.12.53-.2.07-.04.13-.04.17,0s.08.08.11.15c.03.07.04.13.02.19s-.06.1-.13.14c-.08.04-.18.08-.28.11-.1.03-.21.06-.33.09-.12.02-.23.04-.36.06s-.25.02-.37.02c-.24,0-.45-.04-.63-.11s-.34-.18-.46-.31-.22-.3-.29-.49-.1-.41-.1-.65.04-.45.11-.64c.08-.19.18-.36.32-.49.14-.14.3-.24.49-.32.19-.07.4-.11.62-.11.24,0,.45.04.63.11.18.07.34.18.46.31.13.13.22.29.29.47.07.18.11.38.12.59,0,.07-.02.13-.05.16-.03.03-.08.05-.16.05h-2.34ZM177.71,52.21c-.27,0-.49.07-.66.2-.17.13-.28.32-.34.56h1.98c-.05-.24-.15-.43-.31-.56s-.38-.2-.67-.2Z"/>
        <path class="cls-9" d="M184.57,54.36c.07,0,.13.02.16.05.03.03.05.09.05.17s-.02.14-.05.17c-.03.03-.08.05-.16.05h-.51c-.07,0-.13-.02-.16-.05-.03-.03-.05-.09-.05-.17v-.26c-.13.17-.29.31-.47.41-.18.1-.37.14-.59.14-.2,0-.39-.03-.56-.1-.17-.07-.32-.17-.44-.29-.12-.13-.22-.28-.29-.47-.07-.18-.11-.39-.11-.62s.04-.44.11-.62c.07-.18.17-.34.29-.47.12-.13.27-.22.44-.29.17-.07.36-.1.56-.1.22,0,.41.04.58.13.17.09.32.21.45.37v-1.41h-.65c-.07,0-.13-.02-.16-.05-.03-.03-.05-.09-.05-.17s.02-.14.05-.17c.03-.03.08-.05.16-.05h.93c.07,0,.13.02.16.05s.05.09.05.17v3.58h.26ZM183.82,53.39c0-.16-.03-.3-.07-.43-.05-.13-.12-.23-.21-.32-.09-.09-.19-.15-.32-.2s-.25-.07-.4-.07-.28.03-.39.07c-.11.05-.21.12-.29.21s-.14.2-.18.32c-.04.12-.06.26-.06.4s.02.28.06.4c.04.12.1.23.18.32s.17.16.29.21c.11.05.24.07.39.07s.27-.02.4-.07.23-.11.32-.2c.09-.09.16-.19.21-.32.05-.13.07-.27.07-.43Z"/>
      </g>
      <g>
        <rect class="cls-10" x="6.94" y="48.13" width="7.15" height="7.15"/>
        <rect class="cls-8" x="77.1" y="21.25" width="7.15" height="7.15"/>
        <rect class="cls-7" x="145.67" y="3.36" width="7.15" height="7.15"/>
        <rect class="cls-6" x="171.28" y="27.23" width="7.15" height="7.15"/>
        <rect class="cls-3" x="174.26" y="1.54" width="7.15" height="7.15"/>
        <rect class="cls-4" x="202.63" y="5.12" width="7.15" height="7.15"/>
        <polygon class="cls-2" points="85.6 40.98 78.44 40.98 78.44 48.13 85.6 48.13 92.75 48.13 92.75 40.98 85.6 40.98"/>
        <rect class="cls-1" x="58.69" width="7.15" height="7.15"/>
        <rect class="cls-5" x="48.02" y="32.46" width="7.15" height="7.15"/>
      </g>
      <g>
        <path d="M145.67,23.18c0,4.21-3.41,7.63-7.63,7.63s-7.63-3.41-7.63-7.63,3.41-7.63,7.63-7.63,7.63,3.41,7.63,7.63ZM138.04,8.4c-8.16,0-14.78,6.62-14.78,14.78s6.62,14.78,14.78,14.78,14.78-6.62,14.78-14.78-6.62-14.78-14.78-14.78Z"/>
        <path d="M202.85,12.02v6.28s-3.89-.34-3.89,2.76,5.68,2.35,9.54,3.69c3.85,1.34,6.56,3.4,6.56,7.9s-2.91,9.83-11.85,9.83-12.31-5.23-12.31-10.25l7.45-.03s.2,3.89,4.64,3.89,4.38-3.07,4.38-3.07c0,0,.42-2.25-5.42-2.91s-10.94-3.27-10.78-8.92,4.21-9.03,11.69-9.17Z"/>
        <path d="M107.27,8.4c-7.76,0-14.12,5.98-14.73,13.59h-.05v19.27h7.15v-5.42c2.23,1.34,4.84,2.12,7.63,2.12,8.16,0,14.78-6.62,14.78-14.78s-6.62-14.78-14.78-14.78ZM107.27,30.81c-4.21,0-7.63-3.41-7.63-7.63s3.41-7.63,7.63-7.63,7.63,3.41,7.63,7.63-3.41,7.63-7.63,7.63Z"/>
        <path d="M14.78,8.4C7.02,8.4.66,14.38.05,21.99h-.05v26.42h7.15v-12.57c2.23,1.34,4.84,2.12,7.63,2.12,8.16,0,14.78-6.62,14.78-14.78s-6.62-14.78-14.78-14.78ZM14.78,30.81c-4.21,0-7.63-3.41-7.63-7.63s3.41-7.63,7.63-7.63,7.63,3.41,7.63,7.63-3.41,7.63-7.63,7.63Z"/>
        <rect x="181.22" y="8.4" width="7.15" height="32.86"/>
        <polygon points="162.26 34.1 162.26 8.4 155.11 8.4 155.11 34.1 155.11 41.26 162.26 41.26 171.54 41.26 171.54 34.1 162.26 34.1"/>
        <path d="M68.84,35.08v-13.48h.04c.41-3.83,3.65-6.81,7.58-6.81s7.17,2.98,7.58,6.81h7.17c-.43-7.78-6.87-13.96-14.76-13.96s-14.12,5.98-14.73,13.59h-.05v19.27h7.15v-5.42Z"/>
        <path d="M60.12,21.99c-1.32-6.8-7.31-11.94-14.5-11.94-8.16,0-14.78,6.62-14.78,14.78s6.62,14.78,14.78,14.78v-7.15c-4.21,0-7.63-3.41-7.63-7.63s3.41-7.63,7.63-7.63c3.21,0,5.95,1.98,7.07,4.79h-6.6v7.15h14.31s.13-5.42-.28-7.15h0Z"/>
      </g>
    </g>
  </g>
</svg>