<?xml version="1.0" encoding="UTF-8"?>
<svg id="Layer_2" data-name="Layer 2" xmlns="http://www.w3.org/2000/svg" viewBox="0 0 217.43 34.43">
  <defs>
    <style>
      .cls-1 {
        fill: #a70063;
      }

      .cls-2 {
        fill: #ec008c;
      }

      .cls-3 {
        fill: #008641;
      }

      .cls-4 {
        fill: #8c0052;
      }

      .cls-5 {
        fill: #001689;
      }

      .cls-6 {
        fill: #00a886;
      }

      .cls-7 {
        fill: #00652e;
      }
    </style>
  </defs>
  <g id="Layer_1-2" data-name="Layer 1">
    <g>
      <g>
        <path class="cls-5" d="M33.99,27.32v6.62h-5.03V12.36h9.31c1.13,0,2.17.19,3.13.56.95.38,1.77.9,2.47,1.56.69.67,1.23,1.46,1.62,2.37.39.91.58,1.92.58,3.01s-.19,2.11-.57,3.02-.91,1.7-1.59,2.36c-.68.66-1.5,1.17-2.44,1.53-.95.36-1.98.55-3.1.55h-4.36ZM38.07,23.01c.41,0,.8-.08,1.16-.25.36-.16.67-.39.94-.67.27-.28.48-.61.63-.99.15-.38.23-.79.23-1.24s-.08-.84-.23-1.23c-.15-.39-.36-.72-.63-1.02-.27-.29-.58-.52-.94-.69-.36-.17-.75-.25-1.16-.25h-4.08v6.33h4.08Z"/>
        <path class="cls-5" d="M49.92,23.12c0-1.05.14-2.05.42-3.01.28-.96.68-1.86,1.19-2.7.51-.84,1.13-1.6,1.84-2.28.71-.68,1.51-1.27,2.38-1.76s1.81-.87,2.82-1.13c1.01-.26,2.05-.4,3.14-.4s2.12.13,3.13.4c1,.26,1.95.64,2.82,1.13s1.68,1.08,2.4,1.76c.72.68,1.34,1.44,1.85,2.28.51.84.91,1.74,1.19,2.7.28.96.42,1.97.42,3.01s-.14,2.05-.42,3.01c-.28.96-.68,1.86-1.19,2.71-.51.84-1.13,1.6-1.85,2.29-.72.69-1.52,1.27-2.4,1.76-.88.49-1.82.86-2.82,1.13-1.01.27-2.05.4-3.13.4s-2.14-.14-3.14-.4c-1-.27-1.94-.65-2.82-1.13-.87-.49-1.67-1.07-2.38-1.76-.71-.69-1.33-1.45-1.84-2.29s-.91-1.74-1.19-2.71c-.28-.96-.42-1.97-.42-3.01ZM54.93,23.13c0,.99.18,1.92.53,2.77.35.85.84,1.59,1.45,2.21.61.62,1.33,1.11,2.16,1.47.83.35,1.7.53,2.63.53s1.84-.18,2.67-.53c.83-.35,1.54-.84,2.15-1.47.61-.62,1.09-1.36,1.44-2.21.35-.85.53-1.77.53-2.77s-.18-1.92-.53-2.77-.84-1.59-1.44-2.21-1.32-1.11-2.15-1.47c-.83-.35-1.71-.53-2.67-.53s-1.81.18-2.63.53c-.83.35-1.54.84-2.16,1.47s-1.1,1.36-1.45,2.21c-.35.85-.53,1.77-.53,2.77Z"/>
        <path class="cls-5" d="M78.44,12.36h8.77c1.64,0,3.16.23,4.57.7,1.41.47,2.63,1.15,3.66,2.06,1.03.91,1.84,2.03,2.43,3.37.59,1.34.88,2.88.88,4.64,0,1.61-.25,3.08-.76,4.4-.51,1.33-1.25,2.46-2.22,3.41-.97.95-2.17,1.68-3.6,2.21-1.43.52-3.06.78-4.9.78h-8.82V12.36ZM87.13,29.62c2.14,0,3.77-.55,4.89-1.66s1.69-2.69,1.69-4.77c0-.99-.14-1.89-.4-2.7s-.68-1.49-1.22-2.05-1.23-1-2.05-1.31-1.79-.46-2.9-.46h-3.66v12.95h3.66Z"/>
        <path class="cls-5" d="M108.77,27.32v6.62h-5.03V12.36h9.31c1.13,0,2.17.19,3.13.56.95.38,1.77.9,2.47,1.56.69.67,1.23,1.46,1.62,2.37.39.91.58,1.92.58,3.01s-.19,2.11-.57,3.02-.91,1.7-1.59,2.36c-.68.66-1.5,1.17-2.44,1.53-.95.36-1.98.55-3.1.55h-4.36ZM112.85,23.01c.41,0,.8-.08,1.16-.25.36-.16.67-.39.94-.67.27-.28.48-.61.63-.99.15-.38.23-.79.23-1.24s-.08-.84-.23-1.23c-.15-.39-.36-.72-.63-1.02-.27-.29-.58-.52-.94-.69-.36-.17-.75-.25-1.16-.25h-4.08v6.33h4.08Z"/>
        <path class="cls-5" d="M133.72,26.91h-3.2v7.03h-5.03V12.36h9.46c1.13,0,2.17.18,3.12.53.95.35,1.77.85,2.47,1.49.69.64,1.23,1.41,1.62,2.3s.58,1.89.58,2.97c0,.76-.09,1.48-.29,2.15-.19.67-.46,1.28-.81,1.83-.35.55-.77,1.04-1.27,1.46-.5.42-1.05.78-1.67,1.06l4.55,7.77h-5.78l-3.76-7.03ZM134.73,22.59c.41,0,.8-.07,1.16-.21s.67-.34.94-.59c.27-.25.48-.56.63-.92.15-.36.23-.76.23-1.21s-.08-.83-.23-1.2c-.15-.37-.36-.68-.63-.94-.27-.26-.58-.47-.94-.62-.36-.15-.75-.22-1.16-.22h-4.22v5.92h4.22Z"/>
        <path class="cls-5" d="M146.63,23.12c0-1.05.14-2.05.42-3.01.28-.96.68-1.86,1.19-2.7.51-.84,1.13-1.6,1.84-2.28.71-.68,1.51-1.27,2.38-1.76s1.81-.87,2.82-1.13c1.01-.26,2.05-.4,3.14-.4s2.12.13,3.13.4c1,.26,1.95.64,2.82,1.13s1.68,1.08,2.4,1.76c.72.68,1.34,1.44,1.85,2.28.51.84.91,1.74,1.19,2.7.28.96.42,1.97.42,3.01s-.14,2.05-.42,3.01c-.28.96-.68,1.86-1.19,2.71-.51.84-1.13,1.6-1.85,2.29-.72.69-1.52,1.27-2.4,1.76-.88.49-1.82.86-2.82,1.13-1.01.27-2.05.4-3.13.4s-2.14-.14-3.14-.4c-1-.27-1.94-.65-2.82-1.13-.87-.49-1.67-1.07-2.38-1.76-.71-.69-1.33-1.45-1.84-2.29s-.91-1.74-1.19-2.71c-.28-.96-.42-1.97-.42-3.01ZM151.64,23.13c0,.99.18,1.92.53,2.77.35.85.84,1.59,1.45,2.21.61.62,1.33,1.11,2.16,1.47.83.35,1.7.53,2.63.53s1.84-.18,2.67-.53c.83-.35,1.54-.84,2.15-1.47.61-.62,1.09-1.36,1.44-2.21.35-.85.53-1.77.53-2.77s-.18-1.92-.53-2.77-.84-1.59-1.44-2.21-1.32-1.11-2.15-1.47c-.83-.35-1.71-.53-2.67-.53s-1.81.18-2.63.53c-.83.35-1.54.84-2.16,1.47s-1.1,1.36-1.45,2.21c-.35.85-.53,1.77-.53,2.77Z"/>
        <path class="cls-5" d="M174.26,33.94l-.05-3.81,10.99-13.47h-10.34v-4.3h16.99l-.02,3.71-11.03,13.55h11.41v4.31h-17.96Z"/>
        <path class="cls-5" d="M210.75,30.51h-9.04l-1.36,3.43h-5.31l8.84-21.59h4.73l8.84,21.59h-5.3l-1.38-3.43ZM203.43,26.23h5.58l-2.62-6.52-.16-.7h-.03l-.16.7-2.62,6.52Z"/>
      </g>
      <g>
        <polygon class="cls-5" points="20.94 26.76 20.94 20.39 15.1 20.39 12.94 18.24 14.89 16.29 10.77 12.16 10.77 10.77 12.16 10.77 16.29 14.89 20.79 10.39 16.29 5.89 12.16 10.02 10.77 10.02 10.77 8.63 14.89 4.5 10.39 0 5.89 4.5 10.02 8.63 10.02 10.02 8.63 10.02 4.5 5.89 0 10.39 4.5 14.89 8.63 10.77 10.02 10.77 10.02 12.16 5.89 16.29 7.95 18.34 8.47 18.86 10.39 20.79 12.42 18.76 14.58 20.91 14.58 26.23 13.01 27.8 7.16 27.8 7.16 34.17 13.53 34.17 13.53 28.32 15.1 26.76 20.94 26.76"/>
        <g>
          <polygon class="cls-4" points="8.94 18.35 6.88 16.3 10.39 12.78 13.91 16.3 10.39 19.81 8.94 18.35"/>
          <rect class="cls-4" x="2.02" y="7.92" width="4.97" height="4.97" transform="translate(-6.04 6.23) rotate(-45)"/>
          <rect class="cls-4" x="13.8" y="7.92" width="4.97" height="4.97" transform="translate(-2.59 14.56) rotate(-45)"/>
          <rect class="cls-4" x="7.91" y="2.03" width="4.97" height="4.97" transform="translate(-.14 8.67) rotate(-45)"/>
        </g>
        <g>
          <rect class="cls-1" x="8.61" y="14.51" width="3.57" height="3.57" transform="translate(-8.48 12.12) rotate(-45)"/>
          <rect class="cls-1" x="14.5" y="8.62" width="3.57" height="3.57" transform="translate(-2.59 14.56) rotate(-45)"/>
          <rect class="cls-1" x="2.71" y="8.62" width="3.57" height="3.57" transform="translate(-6.04 6.23) rotate(-45)"/>
          <rect class="cls-1" x="8.61" y="2.72" width="3.57" height="3.57" transform="translate(-.14 8.67) rotate(-45)"/>
        </g>
        <g>
          <rect class="cls-2" x="9.31" y="15.21" width="2.17" height="2.17" transform="translate(-8.48 12.12) rotate(-45)"/>
          <rect class="cls-2" x="15.2" y="9.32" width="2.17" height="2.17" transform="translate(-2.59 14.56) rotate(-45)"/>
          <rect class="cls-2" x="3.41" y="9.32" width="2.17" height="2.17" transform="translate(-6.04 6.23) rotate(-45)"/>
          <rect class="cls-2" x="9.31" y="3.42" width="2.17" height="2.17" transform="translate(-.14 8.67) rotate(-45)"/>
        </g>
        <rect class="cls-7" x="15.31" y="21.1" width="4.97" height="4.97"/>
        <rect class="cls-3" x="16.01" y="21.8" width="3.57" height="3.57"/>
        <rect class="cls-6" x="16.71" y="22.49" width="2.18" height="2.18"/>
        <rect class="cls-7" x="7.82" y="28.53" width="4.97" height="4.97"/>
        <rect class="cls-3" x="8.52" y="29.23" width="3.57" height="3.57"/>
        <rect class="cls-6" x="9.22" y="29.93" width="2.18" height="2.18"/>
      </g>
    </g>
  </g>
</svg>